<mxfile host="65bd71144e">
    <diagram id="63XFqaJNnCOzj1Tr916l" name="Page-1">
        <mxGraphModel dx="1672" dy="597" grid="0" gridSize="10" guides="1" tooltips="1" connect="1" arrows="1" fold="1" page="1" pageScale="1" pageWidth="827" pageHeight="1169" math="0" shadow="0">
            <root>
                <mxCell id="0"/>
                <mxCell id="1" parent="0"/>
                <mxCell id="3" value="" style="rounded=1;whiteSpace=wrap;html=1;fillColor=default;" parent="1" vertex="1">
                    <mxGeometry x="120" y="131" width="845" height="470" as="geometry"/>
                </mxCell>
                <mxCell id="4" value="" style="outlineConnect=0;dashed=0;verticalLabelPosition=bottom;verticalAlign=top;align=center;html=1;shape=mxgraph.aws3.virtual_private_cloud;fillColor=#F58534;gradientColor=none;" parent="1" vertex="1">
                    <mxGeometry x="110" y="60" width="79.5" height="54" as="geometry"/>
                </mxCell>
                <mxCell id="5" value="" style="fillColor=#808080;aspect=fixed;sketch=0;pointerEvents=1;shadow=0;dashed=0;html=1;strokeColor=none;labelPosition=center;verticalLabelPosition=bottom;outlineConnect=0;verticalAlign=top;align=center;shape=mxgraph.openstack.neutron_subnet;" parent="1" vertex="1">
                    <mxGeometry x="244" y="131" width="50" height="50" as="geometry"/>
                </mxCell>
                <mxCell id="16" style="edgeStyle=none;html=1;exitX=1;exitY=0.5;exitDx=0;exitDy=0;entryX=0;entryY=0.5;entryDx=0;entryDy=0;startArrow=none;startFill=0;endArrow=none;endFill=0;" parent="1" target="7" edge="1">
                    <mxGeometry relative="1" as="geometry">
                        <mxPoint x="410" y="269" as="sourcePoint"/>
                    </mxGeometry>
                </mxCell>
                <mxCell id="25" style="edgeStyle=none;html=1;endArrow=none;endFill=0;entryX=0.5;entryY=0;entryDx=0;entryDy=0;" parent="1" source="27" target="21" edge="1">
                    <mxGeometry relative="1" as="geometry">
                        <mxPoint x="671" y="310" as="targetPoint"/>
                        <Array as="points">
                            <mxPoint x="518" y="336"/>
                        </Array>
                    </mxGeometry>
                </mxCell>
                <mxCell id="7" value="" style="rounded=1;whiteSpace=wrap;html=1;" parent="1" vertex="1">
                    <mxGeometry x="610" y="181" width="212" height="172" as="geometry"/>
                </mxCell>
                <mxCell id="8" value="" style="fillColor=#808080;aspect=fixed;sketch=0;pointerEvents=1;shadow=0;dashed=0;html=1;strokeColor=none;labelPosition=center;verticalLabelPosition=bottom;outlineConnect=0;verticalAlign=top;align=center;shape=mxgraph.openstack.neutron_subnet;" parent="1" vertex="1">
                    <mxGeometry x="586" y="131" width="50" height="50" as="geometry"/>
                </mxCell>
                <mxCell id="9" value="Virtual Network" style="text;html=1;align=center;verticalAlign=middle;resizable=0;points=[];autosize=1;strokeColor=none;fillColor=none;" parent="1" vertex="1">
                    <mxGeometry x="189.5" y="78" width="100" height="30" as="geometry"/>
                </mxCell>
                <mxCell id="11" value="Subnet_2" style="text;html=1;align=center;verticalAlign=middle;whiteSpace=wrap;rounded=0;" parent="1" vertex="1">
                    <mxGeometry x="636" y="141" width="60" height="30" as="geometry"/>
                </mxCell>
                <mxCell id="15" style="edgeStyle=none;html=1;startArrow=none;startFill=0;endArrow=none;endFill=0;exitX=0.5;exitY=0;exitDx=0;exitDy=0;exitPerimeter=0;entryX=0.5;entryY=1;entryDx=0;entryDy=0;" parent="1" source="13" target="27" edge="1">
                    <mxGeometry relative="1" as="geometry">
                        <mxPoint x="289" y="361" as="targetPoint"/>
                    </mxGeometry>
                </mxCell>
                <mxCell id="13" value="" style="outlineConnect=0;dashed=0;verticalLabelPosition=bottom;verticalAlign=top;align=center;html=1;shape=mxgraph.aws3.internet_gateway;fillColor=#F58536;gradientColor=none;" parent="1" vertex="1">
                    <mxGeometry x="328.5" y="564" width="69" height="72" as="geometry"/>
                </mxCell>
                <mxCell id="14" value="Internet Gateway" style="text;html=1;align=center;verticalAlign=middle;whiteSpace=wrap;rounded=0;" parent="1" vertex="1">
                    <mxGeometry x="333" y="648" width="60" height="30" as="geometry"/>
                </mxCell>
                <mxCell id="17" value="" style="outlineConnect=0;dashed=0;verticalLabelPosition=bottom;verticalAlign=top;align=center;html=1;shape=mxgraph.aws3.route_table;fillColor=#F58536;gradientColor=none;" parent="1" vertex="1">
                    <mxGeometry x="223" y="403" width="75" height="69" as="geometry"/>
                </mxCell>
                <mxCell id="18" value="Route Table" style="text;html=1;align=center;verticalAlign=middle;resizable=0;points=[];autosize=1;strokeColor=none;fillColor=none;" parent="1" vertex="1">
                    <mxGeometry x="223" y="477" width="82" height="26" as="geometry"/>
                </mxCell>
                <mxCell id="19" value="" style="fillColor=#3F51B5;aspect=fixed;sketch=0;pointerEvents=1;shadow=0;dashed=0;html=1;strokeColor=none;labelPosition=center;verticalLabelPosition=bottom;outlineConnect=0;verticalAlign=top;align=center;shape=mxgraph.openstack.neutron_securitygroup;" parent="1" vertex="1">
                    <mxGeometry x="795" y="84" width="50" height="50" as="geometry"/>
                </mxCell>
                <mxCell id="20" value="Security Group" style="text;html=1;align=center;verticalAlign=middle;resizable=0;points=[];autosize=1;strokeColor=none;fillColor=none;" parent="1" vertex="1">
                    <mxGeometry x="843" y="100" width="98" height="26" as="geometry"/>
                </mxCell>
                <mxCell id="21" value="" style="rounded=1;whiteSpace=wrap;html=1;" parent="1" vertex="1">
                    <mxGeometry x="607" y="408" width="220" height="170" as="geometry"/>
                </mxCell>
                <mxCell id="22" value="" style="fillColor=#808080;aspect=fixed;sketch=0;pointerEvents=1;shadow=0;dashed=0;html=1;strokeColor=none;labelPosition=center;verticalLabelPosition=bottom;outlineConnect=0;verticalAlign=top;align=center;shape=mxgraph.openstack.neutron_subnet;" parent="1" vertex="1">
                    <mxGeometry x="745" y="358" width="50" height="50" as="geometry"/>
                </mxCell>
                <mxCell id="23" value="Subnet_3" style="text;html=1;align=center;verticalAlign=middle;whiteSpace=wrap;rounded=0;" parent="1" vertex="1">
                    <mxGeometry x="795" y="368" width="60" height="30" as="geometry"/>
                </mxCell>
                <mxCell id="27" value="" style="rounded=1;whiteSpace=wrap;html=1;" parent="1" vertex="1">
                    <mxGeometry x="253" y="180" width="220" height="170" as="geometry"/>
                </mxCell>
                <mxCell id="28" value="Subnet_1" style="text;html=1;align=center;verticalAlign=middle;whiteSpace=wrap;rounded=0;" parent="1" vertex="1">
                    <mxGeometry x="289" y="141" width="60" height="30" as="geometry"/>
                </mxCell>
                <mxCell id="32" value="" style="outlineConnect=0;dashed=0;verticalLabelPosition=bottom;verticalAlign=top;align=center;html=1;shape=mxgraph.aws3.route_table;fillColor=#F58536;gradientColor=none;" parent="1" vertex="1">
                    <mxGeometry x="501.5" y="372" width="75" height="69" as="geometry"/>
                </mxCell>
                <mxCell id="33" value="Private Route Table" style="text;html=1;align=center;verticalAlign=middle;resizable=0;points=[];autosize=1;strokeColor=none;fillColor=none;" parent="1" vertex="1">
                    <mxGeometry x="481.5" y="446" width="123" height="26" as="geometry"/>
                </mxCell>
                <mxCell id="34" value="Amazon EC2" style="sketch=0;outlineConnect=0;fontColor=#232F3E;gradientColor=none;strokeColor=#ffffff;fillColor=#232F3E;dashed=0;verticalLabelPosition=middle;verticalAlign=bottom;align=center;html=1;whiteSpace=wrap;fontSize=10;fontStyle=1;spacing=3;shape=mxgraph.aws4.productIcon;prIcon=mxgraph.aws4.ec2;" parent="1" vertex="1">
                    <mxGeometry x="334" y="210.5" width="80" height="100" as="geometry"/>
                </mxCell>
                <mxCell id="35" value="" style="sketch=0;outlineConnect=0;fontColor=#232F3E;gradientColor=none;fillColor=#C925D1;strokeColor=none;dashed=0;verticalLabelPosition=bottom;verticalAlign=top;align=center;html=1;fontSize=12;fontStyle=0;aspect=fixed;pointerEvents=1;shape=mxgraph.aws4.rds_instance;" parent="1" vertex="1">
                    <mxGeometry x="683" y="451" width="78" height="78" as="geometry"/>
                </mxCell>
                <mxCell id="36" value="" style="shadow=0;dashed=0;html=1;strokeColor=none;fillColor=#4495D1;labelPosition=center;verticalLabelPosition=bottom;verticalAlign=top;align=center;outlineConnect=0;shape=mxgraph.veeam.2d.private_key;" parent="1" vertex="1">
                    <mxGeometry x="390" y="188.5" width="55.6" height="50.8" as="geometry"/>
                </mxCell>
                <mxCell id="37" value="" style="fillColor=#3F51B5;aspect=fixed;sketch=0;pointerEvents=1;shadow=0;dashed=0;html=1;strokeColor=none;labelPosition=center;verticalLabelPosition=bottom;outlineConnect=0;verticalAlign=top;align=center;shape=mxgraph.openstack.neutron_securitygroup;" parent="1" vertex="1">
                    <mxGeometry x="272" y="295.5" width="50" height="50" as="geometry"/>
                </mxCell>
                <mxCell id="38" value="Security Group" style="text;html=1;align=center;verticalAlign=middle;resizable=0;points=[];autosize=1;strokeColor=none;fillColor=none;" parent="1" vertex="1">
                    <mxGeometry x="320" y="311.5" width="98" height="26" as="geometry"/>
                </mxCell>
                <mxCell id="41" value="" style="shape=image;verticalLabelPosition=bottom;labelBackgroundColor=default;verticalAlign=top;aspect=fixed;imageAspect=0;image=data:image/png,iVBORw0KGgoAAAANSUhEUgAAAKUAAACnCAYAAABw45zRAAAKqWlDQ1BJQ0MgUHJvZmlsZQAASImVlwdUU9kWhs+9N52EFkBASuhNkE4AKaGHLh1EJSQBQgkxEATEjjiCY0FEBJQBHYooOBZAxooFC4OiAvYJMgio42BBVCzvAovgzFvvvfX2Wufub/3ZZ599Tu5Za18AKMosgSAVlgUgjZ8pDPF2o0VFx9DwowABVCAHpAGNxc4QMIKD/QFqs/7v9r4PQFP+julUrn///b+aHIebwQYACkY5npPBTkP5BDresAXCTACQelTXWZkpmOIulBWEaIEoi6c4cYbfTXH8NGMI0zFhIe4oqwFAILNYwkQAyIaoTstiJ6J5yD4om/M5PD7K2Sg7p6Wlc1BuQ9kQjRGgPJWfHv9dnsS/5YyX5GSxEiU8s5dpI3jwMgSprJz/8zj+t6WlimbXMEAHOUnoE4J6afTM/khJ95MwPz4waJZ5nOn4aU4S+YTPMjvDPWaWM1JDmbPMYXn4SfKkBvrPcgLPSxLDy2SGzTI3wzN0loXpIZJ1E4TujFlmCedqEKWES/QkLlOSPzcpLHKWs3gRgZLaUkL95mLcJbpQFCLZC5fv7Ta3rpfkHNIyvts7jymZm5kU5iM5B9Zc/Vw+Yy5nRpSkNg7Xw3MuJlwSL8h0k6wlSA2WxHNTvSV6RlaoZG4m+nLOzQ2WnGEyyzd4lkEoYIAA9BkOAoE3AJnc7MypTbinC3KEvMSkTBoDvWlcGpPPNltAszS3tAFg6t7OvBZv703fR0iJMKelo/8zvR29K7FzWvwmAFrXAaBMndN0JwCQuYLqZ9kiYdaMhpl6YAEJyAAFoAI0gA4wBKbAEtgCR+AKPIEvCAJhIBosA2yQBNKAEKwEeWA9KABFYAfYDcpBFTgA6sERcAy0gtPgArgCboBboBc8BGIwBF6AMfAeTEIQhIcoEBVSgTQhPcgEsoTokDPkCflDIVA0FAclQnxIBOVBG6EiqBgqh6qhBugX6BR0AboG9UD3oQFoFHoDfYIRmAwrwOqwPrwQpsMM2A8Og5fCifAKOBfOh7fBZXANfBhugS/AN+BeWAy/gMcRgEghSogWYorQEXckCIlBEhAhsgYpREqRGqQJaUc6kTuIGHmJfMTgMFQMDWOKccT4YMIxbMwKzBrMVkw5ph7TgrmEuYMZwIxhvmIpWDWsCdYBy8RGYROxK7EF2FJsLfYk9jK2FzuEfY/D4ZRwBjg7nA8uGpeMW4XbituHa8adx/XgBnHjeDxeBW+Cd8IH4Vn4THwBfi/+MP4c/jZ+CP+BIEXQJFgSvAgxBD5hA6GUcIhwlnCbMEyYJMoS9YgOxCAih5hD3E48SGwn3iQOESdJciQDkhMpjJRMWk8qIzWRLpMekd5KSUlpS9lLLZbiSa2TKpM6KnVVakDqI1mebEx2J8eSReRt5DryefJ98lsKhaJPcaXEUDIp2ygNlIuUJ5QP0lRpM2mmNEd6rXSFdIv0belXMkQZPRmGzDKZXJlSmeMyN2VeyhJl9WXdZVmya2QrZE/J9suOy1HlLOSC5NLktsodkrsmNyKPl9eX95TnyOfLH5C/KD9IRag6VHcqm7qRepB6mTqkgFMwUGAqJCsUKRxR6FYYU5RXtFaMUMxWrFA8oyhWQpT0lZhKqUrblY4p9Sl9mqc+jzGPO2/LvKZ5t+dNKM9XdlXmKhcqNyv3Kn9Soal4qqSo7FRpVXmsilE1Vl2sulJ1v+pl1ZfzFeY7zmfPL5x/bP4DNVjNWC1EbZXaAbUutXF1DXVvdYH6XvWL6i81lDRcNZI1SjTOaoxqUjWdNXmaJZrnNJ/TFGkMWiqtjHaJNqalpuWjJdKq1urWmtQ20A7X3qDdrP1Yh6RD10nQKdHp0BnT1dQN0M3TbdR9oEfUo+sl6e3R69Sb0DfQj9TfrN+qP2KgbMA0yDVoNHhkSDF0MVxhWGN41whnRDdKMdpndMsYNrYxTjKuML5pApvYmvBM9pn0LMAusF/AX1CzoN+UbMowzTJtNB0wUzLzN9tg1mr2aqHuwpiFOxd2LvxqbmOean7Q/KGFvIWvxQaLdos3lsaWbMsKy7tWFCsvq7VWbVavrU2sudb7re/ZUG0CbDbbdNh8sbWzFdo22Y7a6drF2VXa9dMV6MH0rfSr9lh7N/u19qftPzrYOmQ6HHP4y9HUMcXxkOPIIoNF3EUHFw06aTuxnKqdxM405zjnn5zFLlouLJcal6euOq4c11rXYYYRI5lxmPHKzdxN6HbSbcLdwX21+3kPxMPbo9Cj21PeM9yz3POJl7ZXolej15i3jfcq7/M+WB8/n50+/Ux1JpvZwBzztfNd7XvJj+wX6lfu99Tf2F/o3x4AB/gG7Ap4FKgXyA9sDQJBzKBdQY+DDYJXBP+6GLc4eHHF4mchFiF5IZ2h1NDloYdC34e5hW0PexhuGC4K74iQiYiNaIiYiPSILI4URy2MWh11I1o1mhfdFoOPiYipjRlf4rlk95KhWJvYgti+pQZLs5deW6a6LHXZmeUyy1nLj8dh4yLjDsV9ZgWxaljj8cz4yvgxtjt7D/sFx5VTwhnlOnGLucMJTgnFCSOJTom7EkeTXJJKk17y3HnlvNfJPslVyRMpQSl1Kd9SI1Ob0whpcWmn+PL8FP6ldI307PQegYmgQCBe4bBi94oxoZ+wNgPKWJrRlqmANkhdIkPRJtFAlnNWRdaHlRErj2fLZfOzu3KMc7bkDOd65f68CrOKvaojTytvfd7Aasbq6jXQmvg1HWt11uavHVrnva5+PWl9yvrfNphvKN7wbmPkxvZ89fx1+YObvDc1FkgXCAv6NzturvoB8wPvh+4tVlv2bvlayCm8XmReVFr0eSt76/UfLX4s+/HbtoRt3dttt+/fgdvB39G302VnfbFccW7x4K6AXS0ltJLCkne7l+++VmpdWrWHtEe0R1zmX9a2V3fvjr2fy5PKeyvcKpor1Sq3VE7s4+y7vd91f1OVelVR1aefeD/dq/aubqnRryk9gDuQdeDZwYiDnT/Tf26oVa0tqv1Sx68T14fUX2qwa2g4pHZoeyPcKGocPRx7+NYRjyNtTaZN1c1KzUVHwVHR0ee/xP3Sd8zvWMdx+vGmE3onKk9STxa2QC05LWOtSa3itui2nlO+pzraHdtP/mr2a91prdMVZxTPbD9LOpt/9tu53HPj5wXnX15IvDDYsbzj4cWoi3cvLb7Ufdnv8tUrXlcudjI6z111unr6msO1U9fp11tv2N5o6bLpOvmbzW8nu227W27a3Wy7ZX+rvWdRz9nbLrcv3PG4c+Uu8+6N3sDenr7wvnv9sf3ie5x7I/dT779+kPVg8uG6R9hHhY9lH5c+UXtS87vR781iW/GZAY+BrqehTx8Osgdf/JHxx+eh/GeUZ6XDmsMNI5Yjp0e9Rm89X/J86IXgxeTLgj/l/qx8ZfjqxF+uf3WNRY0NvRa+/vZm61uVt3XvrN91jAePP3mf9n5yovCDyof6j/SPnZ8iPw1PrvyM/1z2xehL+1e/r4++pX37JmAJWdOtAIIOOCEBgDd1AFCiAaDeAoC0ZKavnjZo5ltgmsB/4pnee9psATjoCkAY2ocEoL4clfRRlkFH8JTuCmArK8mY7YGn+/Up8zcFQOg0RY+3JYyBf9hML/9d3f/0QJL1b/5fQagHKfnM0LAAAABWZVhJZk1NACoAAAAIAAGHaQAEAAAAAQAAABoAAAAAAAOShgAHAAAAEgAAAESgAgAEAAAAAQAAAKWgAwAEAAAAAQAAAKcAAAAAQVNDSUkAAABTY3JlZW5zaG90zPjQ1wAAAdZpVFh0WE1MOmNvbS5hZG9iZS54bXAAAAAAADx4OnhtcG1ldGEgeG1sbnM6eD0iYWRvYmU6bnM6bWV0YS8iIHg6eG1wdGs9IlhNUCBDb3JlIDYuMC4wIj4KICAgPHJkZjpSREYgeG1sbnM6cmRmPSJodHRwOi8vd3d3LnczLm9yZy8xOTk5LzAyLzIyLXJkZi1zeW50YXgtbnMjIj4KICAgICAgPHJkZjpEZXNjcmlwdGlvbiByZGY6YWJvdXQ9IiIKICAgICAgICAgICAgeG1sbnM6ZXhpZj0iaHR0cDovL25zLmFkb2JlLmNvbS9leGlmLzEuMC8iPgogICAgICAgICA8ZXhpZjpQaXhlbFlEaW1lbnNpb24+MTY3PC9leGlmOlBpeGVsWURpbWVuc2lvbj4KICAgICAgICAgPGV4aWY6UGl4ZWxYRGltZW5zaW9uPjE2NTwvZXhpZjpQaXhlbFhEaW1lbnNpb24+CiAgICAgICAgIDxleGlmOlVzZXJDb21tZW50PlNjcmVlbnNob3Q8L2V4aWY6VXNlckNvbW1lbnQ+CiAgICAgIDwvcmRmOkRlc2NyaXB0aW9uPgogICA8L3JkZjpSREY+CjwveDp4bXBtZXRhPgp8aiAwAABAAElEQVR4Aey9WZBe13Xfu76pZ8wgBoIgAYLzPIiUrJHW4EGeY1Vsx4lT5adbTuUhVclN+SGv9yEPtyq5laQcVx5s+V6XZyeRZNmSNVISJUocRZEECRAgQRAAMTYaPX7D/f3W+XbjIwSQALtbBCXs7vOdc/bZ49r/vdbaa+99Tq2HiyvuCgUuIwrUL6OyXCnKClGg2+1Gp9OJhYWF8Nqj3W7HID8q/vp5GHbwudfz8/MrVMI3Jlsjsyuc8o00+bG7E3C1Wi3r5XVxMzMzeSkAp6enE4TNZjNarVY0Go2YmJiIer2e/nXjc5R0ShorcW6uRKJX0ry8KCCQ5JQCzGtBeODAgXjmmWfi8OHDITjnZmejC38SjIJy27ZtceONN8a1114bq1atihr+Pyr+dYVTXl74WZHSCKbCIScnJ+OJJ56IJ598Mk6dOrUokgXrIOgE7rp16+KGG26I973vfbF58+YErKBdaXcFlCtN4csgfQEm6KampuKRRx6J733ve3HmzJkEmc90Pi9nwSlX9dnw8HBs3749Pv7xj+dZLrrS7spAZ6UpfBmkL3ebRTzLIb/zne8kIC2WQFSH9DCMh2Asx9DQUALz1VdfjUcffTSOHTv2I6nNT5RO2bEhkqxwgnB8p9LPsTjWw29g2Ner1aNdG+rHqeLai2uGGTy4TadffSCB4lllWoUZzACfLEHGqcpUgiJMz4b30kyLV220/+ziTnNzc7Fv3754+OGHU1wLPsW5I3ABeK5LUc7zOuEErBzzxRdfjI0bN+bhcw/jFpGPTyHuucld8v0Pl+iSk3j3RECzol0ZiWbrCgdbefCwLsKiOno9BgjcefThm+d8jN8b3GAyg9cGJp3MZjGCAXSYX/irStXr51PlpP9i2WrnljUjX/SP4BFUZbRtxAImz+c7HPQI3KKLKvp3796do3QHTRm/X40S5qIL9BYBf6I4ZTMhVfphObcWMZNND34KBISmoTwXJ0CzLUr08qB/ZnxbBRiMlHHO8r5zoizemm7Ju3iajP6e+2pflqk8v5izYldACR51Qs8CVW53IUAJOp8l+PqZKMZfeumluPnmm5ODVh3Hclm3HmU8p9IXU7jzhLkAac8T8sfBy9bt0ewFfT2qj196ey7XBrO+/LQI2xw88CsS2jAmJVDb/SP5HpztLP+D2/T/Bv289s9M5AzlaJBoAtDEcaVMhix55INL+Dly5EicPHkyYxSumEACdBdyPtcNnuWQ+/fvT2AXsW96hlkuQJrnTxSntMLnc4LMxs8e6nUJxEVKznJPO2Vb9c+G86igVQVqJHS8tlEr/uGvfKS4kr4+DCsAuTn3n5dE8bFM/WQyo0Ut4GxSBHhrpxmo6JFyv8IBe3JM9MbzOUFnuHI2jNevv/76+YIvq99PFigZuKTLRn1j66dwTbbUAQfyvr5D0X+D66PUJISav6bqVeWGygXnsxykgLKKYW4FhMbv57eYSFXODLHIzNCF8znPGv16DOT0ZpcFXA5sCucz/OD1+eInB6QXCugOcdUznWos8TyXtM8X/+36nUPxt5vMm8creklWZpHwxOm3y5vHXs6nVeNXRTgLjFq2tgMgEFAjTIp45oZrTY6Kk2RRjdgX+YatoDFYIZ8TX/AL8GSrVpOZkkygGvNnMgb1woYlRD6uUAf4fGBZS8jCi73XTVSni/wVVB4FZEbLtuiX77zJUAbDlLaznG1G4eqkxd9zEePnTeNteq4cKJPg/VJRwSRvEvtsSeuFc531WuErDcUVGDGG9GElUFT66wkc72oAC/4QbQA432smYASV8FTUJ7NUwdNlnXhY6taY1rM6PBlbsNWJXQd8hBOCKdLxbtOw8zyT+QnyBCcl63UFssCo0jJG5cq5f3sRp/Xr1yeQBNCiDjgIuPOkkVOO/fDlscC+5pprFtOQSxaX3aoqfPF62+eVA2W2U9XbalTORhtk9RKn9MLin733bVflYiIWTikgHTg4Hq+Ep9xK0CVfhDvWGoxSuXcwglWv+oOD1lH2GzxotiBdB4DIVT3bQAAputRVbisIafgKZpxnWWFT/HlW88DbEAK00y1Kg6CDbnW5tE+r5/qmP7/DeX3xP1u2bMn5a2dxpLHg0hWAni8l7ZMObHSG91pj+i233LLYjsa37TK9rEtV3vOldyl+KwbKRVsWpZEQ5bASXpcKN/sEupRCv/2w8iI5Uh04WvUKkJW49AlgkMgSGA7VXJiK5vT+iIW5BF2HRu3OzEV3fiFe3v9S1NCzOi5kwDjdXUDc03D1oRFSIWVA1WgNRZ3G7dEpx1nUMDK2OoZXr4r6qtVRH0cEDw9FqzkaraFVoJzyCGRgakfRcB+NIYQ4ZWSE0+0D1FJeKijXrl0bt99+++IgpeiWgqoA1HTPdYVZZDjqIJd0oYYc1zb0eQG298vlVgyUpZAW/Pjx4+EI0JkBCaI4ueqqq9LWRe36Imu5qvRm6TAI6Q9hbf566o/wqfZs1BZmwQSc4fTRWJg8GmdOMaV28tUYP/J01Obmoz47E9OTp2IWYLYB4YaxEQAMZOCUnkVi1UDzCUrVgV5yS8/1mGt3Yo685wFfa3gUgI5FjfPCuu0xe9UNMbR6bQyPr40GR331emxRgLYxCgCGIdFwLABymOnbdnfccUc8++yz8dprryWgBJZtcyHns0HgbdiwId773vdW9knArGv0wXmhNN6u/4otyBB8xzXavvBCPP7447lUSr/R0dFYvXp13HTTTXHfffclOEdGRrL8BchvtzJvFa9NG6ibVXohQFpgPWFvJnrHX43e6/tj7ti+WDi4O+qThyPOvB49uGBjQcEuE6PzKKoTcsxoCMgcjPBcfwIphpvUMcUunU0w5kAJXZJkoiP3c+AEWMuY27OWytrwWDTG1kd31VXR2rIj6uuujtFtNzKmuSpiaF10R1eTHiKVEgy9DXA61eiszpe+9KU4epSOB4OgF6EmVNLjXNppLvKZHU0mcu+998b9998fct3CHQuobbflbLsVA6Xr9T7/+c/Hc889l0RQTKinWCGvx+AULiL9rd/6rdi5c2fqK8tZsXOJ7P0cwMgBi9gCcCcO7IkjLz4eZ/Y/HUMnX46tjdMxPvNajHROQeQZxGYr5ubWcW1suIPArCuyaLCmOjFmErlkfzBiQ46pFhBB9RLoMlhS9CLumqyuqbfQYzWbw6V4LucbnZuKVQunU7+db07E/Mi6WBjdGFPDG+JIZyTWXn9nbL3p/lh9zS4Cr4leAwCfH0cW8oJOAAnEp59+OtvFaUPdhcR3V32SejjavvPOO+MTn/hEtpl6pc52LIftloPWt9FZMrFzfpYMSivr0YRYcguvVaj/3z/9/+Kpp55aXHZfTAc+lxAl3saNG+I3fuM349Zbd8Qwg4dajcYDDLCFcPH9AmkqcXW2RYvG9GBkAMpm8eQhhGsDeMe9Am8MVjjcm4tG5wxxOzHNoooZROD6PZ+J+vTRmHv1pYiX98b80dcYuMwwcGFpl+CiAgIoQQOhIXWAwXfI0egg1z9pN7p2TdRZcBtXb42pm/5PxP9QNIYBu1NAltEDmvUA/kLToVk1cGvZcYB8F5OBQ7Y5dN/9r7zGqp8n4sXde1GXF6h/L5hshV50o7b6cSeGN6/NNZSKfQ+ZSLazuu8KuyXn0McLGEGcQTwL/thjjyWHtGfqV3qU57Iez3D2sJMnT8Uj3/pWXHvd1TG0ltUvxQ4IraW3SJSjeKkemAUmnfRB4+/Wh5LYMqtR0hwJ9qFwPUfajeZYjMxPwv0ORGvv0zH94vcijh+KySOvRRMwDterkbRxhaCpZg8gbuZWeej7DjhKlCpDNcKdOXEqGlPPRgMRfOoAq8O33xTNHXdErMJEM7Yu5gBLZciCuwFQ7Qo1OmS1zAPA8Vendzeaw7Fj2zVx1Ro48Z13xcv79sfR19GhJ09mp1+FrrxqfDw27bguBzbqkkW9oiF/JHRYGigtoxylfwg693qot3gu3FHOWIApKAVrsnwAq3uJZVWvHHw9xtdujCEIR/9Pf+108i2d5BWUlaREhBJkvikgSYNyjHA0HLgAyh56nVaaGgOYePnpeP3bn4nRgz8IeGKCbogIdcraY3YCoZbM1hF5xZELID17mOY74+wo/mdnRzL0GPV34HSjz/5VTO3ZGKfW3hwb7/75qN/5wYjVm5IW0kfuXrNzU/ZuS/pAUUxV1sYEx4caMb5+KDauXRW7dmxj9dA06hNGcZ62OxjKaJfW8ESqVMaw7bKN++2l30q6JYEyhUu/wBJOsDk3+sorr0STSpbKNBQnENWKySGLOciKGU/9Zt+B1+LW226vcJCiSDBIDG86FYfsA1T2qXiaiiF0uE60atMIKKfQhuGuqABnTkQdELa/9T/j+HPfibHxkZhzkNBh4GKeGMfriGwrP6SO5kCFelRcMqHPE8+6dw6U1l+6JR1VU6gzpYxxRvK97vHoHH069n/2BzH05Gdj/d0fjYkd90Vt7bUMisYxyssIEPEU34HdoEuDPHRVvx4baSGaJ6CnrekArHL1LioUrrSV7eTxo3BLAuUgh7SwEk+AWRHBYSXkkh2IWMS1z8q1cbz2OD3Fbjo9dF7IthKQgrLyEoy1bBx7fQ1IqifpsPd1MMWc2Bu9I/vj9FNfj/q+78fQ6SOxoYE4XxDcVpU0AaAcWK2rzlnOUiOvxGR/VMxoApWh0sky+XfoxzJZc+mcZc9byt8BPOg23ZiMq+w7R56K2X/cF+3N34rR238qmjc/ELF2eyw0JhjxG0nK4SBWJpV0kL5Z+T6tDWAQJAbPG1XAft5V7sm5q2Ar+rskUAoe+5dOQOrklgJRQEpM/csznwtK/UvP85n3TWiUvEnGpFLYT1dfgVfxTcFoj5XIvRiPWX4RO9p6jhyMucc/H819j0T3pcdjBDWhi41vrjXMwKgXY/OoE8Mj+JGReXqo2GejKbrJXZGXjUEu2SmqOpH9O+LqlNXxnDTyWpp1KVe9i1E9O5Sdn/nouVPQYirOvHAkpk/ti/mDz8bae34mhq69n/pqSoJ+VptaNK1i1oYL0pUAmrCqS2jgNc9tE5lFcR2u5bC27Uq7pYGyX7oCLG+vvvpqzChzOQ3ntkydzzW0NgGKO+hG2Iykk8iCVD1z5/arY/7MTIxjUE4lT4gClC6EmINMWgWLs4PXAe4IMy31NjbFJ74ax7/3xWideiV6mFhGsfl10nQjlGcU7OhWtopi21T6umrftiL+bIjSXHnpT+W5eDt4YZ1W2nVSMbZzUxSy64hQXLvJzD064ogcEwnQhlRzkEf9sXPmaHR/8Ei8jgq16banonHHAzG/7gZE+ibxx6KKihcOoVdW0kOLB12f9K3RIORsn3fCLQ2UVMaaWHgbSTuke4Q/+MEPxuNPPpH1Kc987uYljecpwhmMSGkJ4fTVpnVrYjiH2650gDTZgyEiAXIwY16Elrs1AWRtbiZq+78d83sej1O7vxOtqUOINbg0+us89r16VyiiKtTbiDHSAYDD2Jf8k8sWV82SQHw5Qz8P+bIDn6xcCXgZnefqTE1Cu9SsqYrbNhbowB3UD2s3hFmnfuKlmHnsYEyceSbizl+N1rXvS1tpj5UfPVQrye/8O/9ZTWtrZ0/SeB5EJ7c/Src0UPbbVsBlcyNi3JL5sY99LF7cuyf1yyICDFquBariYR5Rr/3r1ltvjW3XbIWTQhrERA909NDrcgBJOBVyYAUYme7rQvDZ6Tiz9wfR+Mb/iLnjrwPQWUAnN21Uo3caydG1FFYsL2D6WUDjb8FZxL38pnpqujYHLvOoLqunctnL0zH+pth0OGhCF8y6uDpeA3auDekgqbAqjM4cj3jmQBw7yVbZe2dj/a5bsJutgyaj0HgYkT5M3LNdNClxljDvWOWXZDwvIkyADToXgn7hi1+Mr37tq3HixAkAVtknDVd0Ff0E8G233Raf/OQnY9vVGyEq3KpD/1csyQforUoQTT21zumozbOkH0LPPf90vPTIl2LXsX8EjCrza2JWdkiLsP8QUwaAqmEaEqh4Jz4pYIu05cCJwMUic5HXlUf+9gFdPaj8B+vndan7uf4/ivsWI+N5ON4ciri65TBifbyNlACIgY6ZnZCqYrGM+kI9jjM71N10fUxce1Osu+cDEeuug6hMFwLO7pDgrLqmo/QEpr323cspGQHSgEX5LQ3lVNSD730wRkZH4stf/nIC03lvOWQ5fPuC89+/8Au/kNxSEiqmNQA7GFHds9Oqdte72BsXAPeRF+LMkw/HzJ7vx7rJ12iUDIBdEkM4I3AHAw1mMHrojpo4clADgR1HO3DpMZp/o/CuBgDSv4Jen03kqJ8GIo6zIJebazHAYw4N1UZxTd2oa/5p2gJZdnwlDUMgRjbDMT43GfHKkyw2eZ3ZttMxdtdHorb9zqiNjGa9rXXKBYjAUl5UeVE5uIL+R0uBpYlvOR/lFYwegxzTeW11y+uvvz5nd7RduqTewY6AvBFA3rBrV3JLdcy23EnOBhrT7GPv1QvdMGYnY/7Q3ph65uHo7flujB5/hamx+Tg6tiWGMAUN12fRR7Va0kCw1w6cxEUOHQYDbeR1G7AuJGArTiA0Cwwlt9yGqezMn4rwtDqq0Ia4vNxCY55ZG0QykkHZ0KFuzujM9VjYwsCnicqirNFu0UHKjLSnONCtT/Xi5PPdwPrG2vXxGN8xDkfUHlmJ8MrAxmRC6tTvHCiXJL5tqgRjNqMNmV0tW7Cjss08bIdG7sIhHZEnKAkyMlL1boFRca56nIGwipEm3GlYXQmOp02x1p2O2t7vxsmHPx3NQ09Gc/40YUeZzcHU0RkmPOIaHarVm0Wf1EQCaeksgrxNvvNDGPWxAqhzDs3SaEp2gUdeWgRsPB4Bcjzwr55XJTOMzCb9uckg+mWdjKkjn/5V3mKu0XDVlWvpT1gbudJkSZf4mlaUBJkOAGoz3+9ijqQlUapOAS1cC2Amlov0nAv3eqw/I1axBL2oJwkuuDCZ9HJ1D7k63230dpzmDH34bS4Atvq6aG28OYbv+nD03vsQSw1Qf4irWU5dtCrjmsyz4qGKGyuuNYRFNVx5l0b5NN9RP2hZVYoHS3RL45RkXrhjIVApTwOQ6RTtKQxYnmY7uE5GMlWENoQVtBldeKswEiSIeSs7ezxm9z0ZJ775tzF8+MWoY2u0fWzwen2BUSag8to/FnHYOB0bj8ZgopEDwJh53zjXskw5G6LK4fYHSkQ+Ls5tM32Xb4TIEWxVdmeTHMHbCF3CpYgjLxfdtobpcPr7kFCVtCArBg9UzidVo4oqgKI5Sj87KUozbW25SR9O3qw5G2WjUpaMZqEtq6CCsg6RAYVBfN5loFMj40a/XjVtla494GGqQEoL8yQHjx4WCRBOXAaKSJbRhcmoHX0p5h5loQYcdvT+9zMDt46OLDBZJyrRRGgCkfJmpzApS8MtxxucRPCBxzK4JXPKC5ZBsQsVXUFtc1gRhQTk4krKG1OiJQyzcbXVSnT7Yn3hVPR2fyVmH/7TqKNLLgC4uRb2Rwg0Pn8oRjvIoMY49AIQNECO1u3JxmbqsAOh5I45dKdNBPIEuqdgSBrCnWpwclqWtY42Jhn327GHMbNLQ5MwnFg7HgedS87fYwFIvTGGrZAV5q5o4j5Mi+eWo4ZdNBvRCloZz9ACDRBAADJA0WFQ0mkz7y6wWCbXajNKhk4NwNdDJFs+u0NriIGINOR+AaBUU44Rk6PbSI9OiXQYxhoxhM7dVO9WnwYYbcq74GohVkdJj3odce98I67GYK+Xg0JeR1NfE60NO6P30Ceid/v9MTO8BYkxFqMkIqZTfcqGkpFQCMuSRKrQV3FxHtlwmkgSxOayNLdkTnnB7K1Vv5ByBCulWJLcPIB4+lZcNH2hmespWjRknW0IC3sejTMP/69oHXwxRhDhvdbqWFC+E69ZG+MMVyGC4iS5gyJQbinRXHxAOiNwwEYa5JxFknCEd+UN5WpzzzgVfYzioPD32JbQY1VRc3h1tMZYJtZC1LOwNlZviRoDtyaWggY21jozRHKuYeKkkY859TzDebO+DvfTUasEpRXjGjNWGgcx+HfmMWHNz+XuwNrsKQzeh6PNApbO3HTMsVrHCYAaC5AbHMNw0TrqSTVXbz3Y5trzRVNy1Q7XyAQkgCvUg7nuir5VCZp2LE1GVF0pUheklLc9BHdmNT2T5zFzYjrmv3461kLLsdt/GjE+HKfoqO6XVLDYzeiaHKUNq/ZL9OObjjZZTrdioOzQ8BbZypzVqayQYNRnkWcmVGWaQzyuL9B4L/OGr6//WYwcZRU4/rPa1RB/Qx021UOABUaU83KsGg3IfXJLc5JN0P7qo07gVNxpDrDTOIDwxBDABsSn2drQgfAjq9dhttscE9t3xdDG7axOuCpqHqMbAAXlZO9Mh5VL1cCr0nnbpFsJVX8HxJmV1bkW1JoLRP5Lc6lOiI6cqvMBRw6u0A+bsw5amDKljOMM6mIW09f08Whjiz1zeF+cPLgXIJ+MtWMtZqsQt/OHE2TutnTLRe64tHOQrJ1RMd6EXnXo0IDNpr4pN5drtvossDmD6GbtJItZhl9jvcKXWYTdHo3h2z8Q06yAt3P34Uc8lSvhSR3Sl1PWTMbDZam73svgVkx8u0DXBvGNEZjJuaqqSFPg49q/s1zSeigYRlk21d77jTj5zT/HhPFYztC066yQxLyxCjE31mG1NMSebK6PmeY4Yoa3NWRDmBOUoZGqHlzpi0hCGs9Hcsd6TG67h90F22LtluuivvEaFi1sSWOyCzActdoDejSa4jvZCyJZOSb0cvDC2Wvne0y2qqEt0s8//YiaT62voaqQxpTfVHQwRPXndGGje5Y35IolGx+wph4qiKhz5+jrcezVA7kKa/ueP402s2MuvevBdZ3lGoKtqWdaMheYJD34tWxOQ85DA7Vj+H+00Mcnmwx+EP+rKebINCpPZ300rrknuj/7C9G++UY6PGs1cQ7uSu2kBOye8lg3fS13xUNJPmuHx5LdWWosOak3JlCKnb4iQzplQ1S80+e6rBY6SbM7Gb1Dz2P2+UJ0Xn8exR1uBiC69HZaCHFbi1n0pDpUarUxpKNDdbgX2kJc3isX6jGKnEbRnx/fiOjdGrWrdkZr3TbWD26JtZsgNFsKUtwqnonPiMdmTN3NBmijSFVWzqqBx2mAClbCUqctVJDT0ukD3AjQZ9L4mVoFXputcvqVVKyx10ZybKu5Si5UUiN9b0w+6VaFq1+1mv1M18cmZeqBq6N7+mRMHz4Y86+/El1W0E9PHove1PFYhYjI6VYAap7+WbjsRqgBtdo8dUQlQC3Qv8tg0fVWVmf22O5Y+OrpWDX0UMT2m5NOWk7oN6bCYc2KowXh7KpgtlC2Y3m0xPOKcUpf8a4gky+iJHFFtag5BhwaAtHNrQMa7W0oWKzy+W7UnvpSHHnmG9FAz2rAHWyTJhWXe7TZ2deFo9UxNU3MHknRNDOyjU4LVwGMDcSaxuCYQPRcf3vUN1wXjfXXR+OqG2OexQhtdCUXMNgECaAkNE0GlSV4JZgq6HivU9EfL72n8qp+DVBap3+dcfwRiXlzNkjeG77vz1XluFenVQ31sYfRzTc5qhwpDz285qxa4ADLzsoOzJh6PTqnj2GDfC06rzwXzcMs3Xt1bwyhlw+hU2IRYy0AtUOFGaEjL7TmYxaVPFHIVGMsDLMmgEEbnfN0fS5GQNfEpvUx/8n/J4Y2IElaqE5sG5Y+Oi0FmbeVoRyyBDVX29qyL4cT4CviCpHPNoQ+zjJUHEdG0GI0XJtHJC+gQz36mej84Fsxwv6eFvuh5R3ql04xMmuNXon1EnOF+7UbdbanEm+cFS+doYl4vTMWw1ffE6vQh5o77oRDbkYfBMQ5+HCfNHtOAPlC07Q0IMlfJSFlgrYJhEEqWFSc7b/YGumjZ7nw2oapOkXCWTTZ0MYbdOW+nAeeqf+6/OyHmlRVJGUi54xns1dujnlv5AUIQUccZR/5+u0A7taInXeT/1QMA87Tz3wnDrEFZDWT4sPTpxilwybYDJcwgkdMYSt2xqfWG49pVpmruzdZd9qdORnzBybj4KOfix0f+Di0vBr8qtJUxjwtEQ0YRUWY8/XYUsq3f155UFq2PoFVnn0ThBJoiMaosU8mFo7F7ItPRGP3d9nqegjJOo5JjZAuvED5d815zuoaHl2IoXBMt7bRGIyCEcdD6IhbdtIg196SA5V2g14Ne9CALn5kNE3lMlymniMLW1j9znOGgDNVfngMuIrgvWo1CCErLlrsstkoRpeDpUvkUFVeANX3eSM4+75VsBKCIgBqC5kNbfcwnKxTgcvRV9YWo3Gh1cBwWnWNUUdlyaWBWApYxIaKsjZWXX9XTCDeTx3cF/P7Ho/ukd0xd/JwjCG1hrBI1GZperaTzFK/dm8+huaVWkTHCjELnRv7sH5sYNbnnoeo03AuixOcBrFbV5qkpVCAW4rlcysKymyUlI8VkeVO0Lq/EpzqtTH1HHwhZp9/NIYZEft2Ce1+bbhaDVCq3c0zqpwjknZDR49ywdp174nONbdH4+o7o7cKHZG1gWns9cQ+7nz7hSNTbIw2rPn24LRO6S4CJi9o4eR0akWSW2fzU0hOXnWKfY+YlU5lg1R6qJpaJbg44Uyyg51SuGTy/cyq06Jvhj37I/goeMYwpPdVDPMvh+G99lGlhHBJR82tHZQ9ubp2TgzrnaFxRtaU5ZodMXTN+6N1/d3RPfT9mH3hB3Hy0MsxwosWxudhCIj0dmuODXfYMVkjaM3U07tYNyYm98Xs978eI6s2ROMWXpCAbVbzpiWTnpUWfLZ0VYkt4NLdioFSSZaEcmQrOQUJvT4Ji0+NkXbMnIpTzzwa3ddeiBlWq+RaP7e7ErHOK09q2iW5H2pNxwlouPo6tnre/wtR33JPxJpt0Rl14gyxnIBS66ma0zdfFAhZBpfCpbkInSmVSEkrB9LJxdFzk9qlcHmTTw1QLvrnCnD69qH3hufZcRKsVZLVwz4gB5OqEqhK3i+LJbFUg1yoyp4OU7g58VKQc9YU1qXsua+cyAvc05+zf/VrRWIAdvPd0dx8a6zdeZSXLrwSc09/K8489XCsWziMeYnZnZF59psz4GIdamthjGnMMWy2x2LyxCtx8IlvxvYd96A+suSN7m7yi8MyyiSdlXzL6VYQlIoxku+DMcktYRFVQ7CsOobiLvtoJvc/zxbYM9gPq5FiLr+CM7ZbbH5iEDPOaHJ486bYevf7GRE+gOVmJ2abLTlrgWKZbWZMdzejESVtNL3YKPJJt5lym4MHli0kE6x+6CzaFGXdAsSj7yymEl9X86Jcc2+6Ohui782d+VaJsA/Qx+nOPue2pF/OhuBaQWJsw3queKaBuMtBDuXPOJ77kdMWKl+j4wJo+272Xx5bHTUONRVNRKKUjSDR4TUwjfXjMcwbN8a3bI+ae8i/9/cMjh5jdonV+RTbzXej83BfzFHtBhLH6Uj2Ob32+Hdj008hoZhEsIyOuStam4kl5zxADW6W5FZs9B2xj7JexQwUK1EodzWihDsyskbNjjmWUtW+/t+j/uqrcWp+a0z09jMYmYIY7DwcXhenx7ZF95q7onHD+2J8O+eNmHfEEVRxEUZuv9Wkc8UtUsD59ws6wctDFRVDJfinzsSx3U/F1LMPx9AhBkVn9sWqudcxKU3HodW1WDvDiH2BCYfNH476h3476mytmGF4jjmersdsGAyH2XLag56Arp894oIFuPgHK8Ypu7EFbiJrx2zhkiqdJiFmSZqzR2N67xO8t+c4XLITo7UjIK1Bj17L/Ou6qG++MVbf+J4Yu/6+iI3XwtCY9MIUobiSsIorXeFaeXPl500ogAhPelVDkgLdJia0LTdju900EbP7Nkf72W/G6WP7cyXWqvkj8MNxzETMnk3tjtYLX4pVvM1kdOsOuGqzshnTnin8AKlifLncioFynrkDxnaYGpg27JgNc9SAapYeNXTw5ajxtoqhWYCGeBxqols2r4r2qq0xsv32WPven4/YgHipw2VZ3VJzNQwj9dxTomkCs0QZDCwXIX6807ErVwMZjEjJLa2vi6DrLCypMcU6soZ5/h03xsnvfT1eevbp2HmGDby8vsWtvEPtQ7Hw0teive06FnCwFqC+PufbK8GNIMfYyhhrUU1fKi1XDJSp02jkxUrImjN6lGYajlOn49gzj8UEbzfjPWMxy4BmbmJdzG65Pzbc/qEYvfGu6A1vYtTNCJL3M2KFQPRjonBE7qgFHdHlahrf2TO71Pr/hMSXWGqDDgAV3dVqhB6g7PHSiJhnYAOq6rwxY+1Hro3mrpej9+2/iw77yZuz+7EHYy6aPxCN7/1lxHX3RYP3DA1XDYNOjIZJOyyn1Fo5ULJMC+MZQER0s1/GgYxgGn7p0Zj8/sMxQWU09cyv34TJ4vbYcu+nos57GrvMvHQEM7a3Gmv6fMGVAxI3RbmvzIFQDbNPnXWRwYj9irsYCkjEiq8pZj1y3Q9YBW/QGX0Q05vA6rFoZWjXxmiOwVGf2xJnnvhijMw9Dy9gBdPxA9FhGnh0zUbCYSumiV3mkYp+DsHNY+luxUCpiZchH2ydeWgA6bIM57cbj/9NbJ1+lbW2zZhkPtr9ImP3fjxmxm4EZBCEEZHrh5rU2G2xKubOe0O57Ou8TqAa5KQhfOkE+MlIQbgJGA/FuOKc0buSixG6/CP1dIKlkEdnbF63M9ZcdW1MrLkmznz2/45xjfu0ycGnPhu77rg7aqs0ETFfiVJZ753hLPNRMi7drRgoOxhjGy545aVMs4iIFlNjs099MUZ3f4GZGpY8XPtTsf6Bn2Oz/AdykcRQ3cGMq8/7hmDFNITzUPhUWpFEU3lx3aBwveIGKXB2tmnQV9qpg1eQzIUri6K8Wl3kvLdGHnko0Mtjmle+jI7y1uF7PhrNq9byXqZPR/uVR2IVpqIjcM/NLA6eGr+ewWkvJly9RTsNTiRw87bdioHSV/TVmYd1VUoLrjh8cn+cee6rqIEQaPNt0XjPr0X9lg/F3DgvCaViI4DMNYBVh6YHAz6JZN+rJrdKHSWrvVL/K+5iKCAgBZuw6ROYMz5pQoLK0N3Ob4gywbHACvSOm+RHeX7tbRhHPhULT43F0P6nY+7V/TH/6p4YRszPo2Z1GXxqk5YPL4dbMVCmMVc90MW0wKvN4oAhVpHHDRjAH/y16G39QMyNrkdntHdSeQDsycFLFzGACTcrKSCbzM0Wsnbgkr4vTSK72OWKuzgKFMBUY3DiSOukohd9/oh1xHAerTatxmKOOWbBuiNM0W6/N1pr2D069pmYfhrb5ku7Y/1WDOoTm3gp7fq0tSwXmJYrHarxRldDXM84BcY86uih/dHZuycam3ZF/PrvYee6NqYQDy3HKhz2SOeTK4oIuEpkZ9+Ve+byNAlHEChWCPfGHK/cXYgCPyxRKq7oFGTFLSvaVkiF3jjjOJhsttqArhcL2JdbrMJv3rEu1sx9Nk7sfTTW3HMPVrtrGLCyq5RWWS4wLVc6WZHBny49rAnXqzGLP8fbek8Nb4zND3yULriTVT58FcGKgy4HNS0Wn2pWqHbgVTOrLrESfOlUoBU1GGt9QYAaUnZ0EXrFvSUFmLar8Jbkqmjm7GkKdM7JECSvIE04YgLKFpIfoIaxKFh93y0uTWyaE/d8nEkQnr12KpoTrDoad0Hg8kFpxaYZJ3tHqBgvrZrCAPEyszdsxhpiNqDLxqtZOup0EoMdhqzzG2V33xTbG1yzpw6JAKcTC1tcGsrVLytXLTPzGQRkq8QVdxEUcGdp6o8Q3lkYaK96JU0LXblNOHrW1dgxyrurYRlu5xWT/CDOF7RZErl9hGWGs4ejsQVDuiv8Mf0t1xfkVgyU7ry2B2bnc2U5C1LzHZBUVaIUgjikEWgpsumJChbtaG90Z32SaMk1DWPoH2NHFd0aXO0pR8WRPqzGLaNs/X1pmOfyOpzzUkN6FdeXLgM+5UmeCyir1eXSt9C4iuFrehJ82pFcnOzq4MXpnMXYb0jzUm9WDJSXWpAr4S9MgQJKQwhID/183Y2uALWANT3fxT+lG7yLq/CTUfQCOM+DYCyA/HGiwhVQXq6tqejui+YCSItaOKTP9Pco7/28XKtyqeVaviHTpeZ8JfybUiCXPCOiU0vri2sjpP7YB6P3grK8itH7Hwd3BZSXaSsKNkUzKFws4czMTL4d2Xd9+sFV3xVfOKaBjPPj4FYMlOo9EmmQUF7b03Wey33hBoWgJYz+OdobGHEWUZVpy0f67WCcEs/GLPcZrt9Yb4g7UBb9DS/HyTkN0ixhS5lMp7iSj+dBnc77rBPpcZHX0sE3FHuvG0ynpOe5pFmem7/X1t8v537xi1+Ml19+OQ4dOhT3YLT++Z//+R/ikKXsg+lm2pYHJ+VLPoPlzmeWvU/PUg/9z3WlXfUvaQ1eJw0p95ulcW6a596vGCgt1GLFpQZtop/EXvTHOwsv6Pjrm8SzjPobrTRONrZ+HKXh/PSe15meGRijT5CSV3nu/flcSc9wJV3Dee0zzR9+ILQ4y2PDFC6lf9Ypw1V5tHleGufcNC2iNSvpD+Zf8tAv8+53Rl/X/Q//8A9x+PDh/JKbL6L1bckl7UX7YIX7ksziOV8zmHdnaeet9RjMv/pGkU11gYT6KZZ8vT23HvqV8g+G0/9i3YqBsgClVLoUtIDSe93imYYqr6C2MiV+CZMvFc0YmEAAgM5whSimq5MrFWKYRunZPhcoJT/D6pdpeNMHIQHyuqSbACKdAibTNA2fl4+kZn4ZrQJyltU4OMNnPlx7LnFL3t57WLbiMj1u9C9xTp48mdeCUb8S3rDVC1rJS5vi+fDU9xNsmX8/0GLZSENnusUVGpf7cja+znyr9Coali8Ul/Iupm3YPi0y4kX8rBgozVtiWXgrUo5FYhqAZ26i1yWxrCiHzgrnP/dW1PdSJiG4Fyi6QQItgsVIuEI0pym8XnzOdaZNmPOB9NxyZGL8ZJ42CPFLvMwfL9OuiluVv8FEgWVeLG+/IQ1f0s84ptuvV+ZDWoPcv+Rtg+tKPTwbr9SpgCk/MNqvf4nr2bCDrtBPP9MaPOfNm/xkeOtBmJKuKXhd6lzKlc+T3m+S4HkerRgo/fKYhSqEbOX3ri29/32yWDkOXzttuFK5cxusEK7oZnK/InoEiMSw4XxuyqaUBCE743otFy55+N71UjYuWHDMm3x57tcqMgxx8gNVplk4XT+dqgnPckBF67mgKY1iGRc7IfHlPmWGprRFkQ6eC7cp9ZWGBXB+f8i8DGe6+pc6lrQu5mwcv+Vtnb22fKWc5mvZC/3Pl16pm9LAeINxknZEstx+M8m0F7+Ae77ELuC3YqD04/OTk5NJvNWrV+eXIMb5ZK+gKT3KBvZrt6cIZ4X8TriV2Lx5c+pM5SOjWVmee5aQNozfgNy/f3825OnTp2P79u2xbRtvuAVIhVjWWSI6OHDkOkH+U+ThV9HUCQ0nAR1AvLB7d+wjPcOtWbMmbr755ti1a1esX7++//WKsxS0HFQjwz7//POZh/kqWh0V+4Er07espcwZO3tdlY51EPh+YNW4x44dix07dmRc4/llNj/3YvmOHz+e6RjT9KTfgQPsmemL/AIU61/8qlzO/hrP/KTbsaNH42U+jGD6prWeDyNcTVzrupqyj/MRhQs507Hsr776aszQdnZw87+WfeTWWTXDZ889+2zs3bs3brv99vwCyIXSO5//ioHyv/yX/5LEtNJ+K+df/at/lYCzAlasVO4ViPsHf/AHCRwL+NBDD8Vv/uZvZgUlsA10rrNtVfr/43/8j4uc4zd/4zfiV371V7NRTFvnWdD7/fE/+ZM/ybA7aPh/9+/+XX757IUXXoi/+7u/i2choCDwQ1NkmIT+x3/8x/yKxYMPPphfubjuuusSdJangM1GNtwTTzyRXMz8fv/3fz9upyEErffnlr+UzQ7xn/7Tf4qnnmJzVp8j/5t/82/irrvuyrTsKNbP+HZUO6zX0u/b3/52PPzww8nxWnQEOeiWLVviP/yH/xB+nztdXyJVN5Hgf/TRRzOugJml7IKo0EiG4SdkrO+HPvShkJGYl26xHtade4H3N3/zN/Gtb30rafKBD3wg/vk//+fx2muvJT2/9rWvJeDtnFdt2pRpXMrPioFSQFkpDxtP0VgqWQqoSNff3itHMI4EHuQyhlUcF2XehhmmkQxfGtg0JJaNq1/xN6xpFtHnvY1rfn6T/POf/3yC1niG8blxVSd0cqi///u/jxf58Ps/+Sf/JO68885MzzQN52dZ9LNxCvc3TTuhI3aEYfqbVimT14aVuz/99NNZD/3kNI6qpZFhFX8eciWdZfOZYDauafisJrei/F5LO8PpSnkMb+f727/923j8cV50RTzpe+ONN4ZA1Mkx5bx2zt1IjCeffDJ+67d+K6WPYXWmo7MM0so8deZpWxw5ciT+8A//MLmjYe3gWWbqcqluxUApYUsjDxZKfwmjKyaI8rwQNJ/145dnb3bOfC4QwPw8SmPbQb761a/GN7/5zQSdXOiGG26IO+64I8W1QHz0O9+JpwCMzrIqhv76r/86RbPgyXLS+ILzIx/5SHz6059OUW4e3/ve97KBizgzrOE8ZzzS9L5wGcujyvCLv/iLyRF9Zjqb4DCf+tSnskP7XO5YOq+fDbzlllsW07R+G+GQgqW4rC/dYs++PfG3cLXH4eaCx470SWycD773vVgP+GwgHVoQff3rX0+6CFA7y9q1a+Of/bN/ltKilN001YvNz7wErPQx3c997nPx0ksvZefwXo6tKrO+cO5SsIs4rygoLXxpiPOVpTwr5xKmxJMI5z4rYd7sbBzT0CUhSaekKff5yle+kvruxo0bU60QkCWOHOenf/qn4xvf+EZyFzmIcdVfP/OZz8S/+Bf/IhvM8KZt4/zsz/5sclQBJvdRXdiKOG3BTQxT8i55qCp8+5FHEnCCcOvWrWkQL4MC4+gnUI2rCiIovfbQeP4rv/IrCQjDmq5uGFFervVXp1e9+C4dxXh+mPV3f/d3U71Q/9UZ3uOXf/mXUyf/q7/6q+xUP/jBD0J9WXE+6BTgJU8B6aDp4MGDmZcgtbOofu3cyRuUuXdAdKmuUhouNdYlhJcYb+XOFyLjVbR+q+gXfE4T5jPTKoegk/MoKv/1v/7X+bFSiWcjeRYYEv3+++/PBlRX0xlH3VFukI3RJ7bp/dRP/VRyFPMwnGLyBHqX38guDejZQ7dv3744wgBHDuVx3333LaoePjec5ZGrTYz7QtNKbPvMPOSYqix2AMXk+Fh1dtDhc7mZ3Mqyfve73820/crbb//2b6fOaj3N13oISD+VYjrW+YEHHshnDsDUQc1LZ+cpNPRal3Qgvl+TM9z73//++L3f+70EpOLd50TKsJfys2KgLD3wzQpjJXViz/DF5bX3l16fkkSe7dWFkDas16ZtA6kj2qtTH8VvMJxhBYMj8A9/+MPZqDaEnEd9S720lF1/xZRp6WwI9Ssbyryy4fDzbBxBLAcyDf0si5wvB1n9+Ibzmc46GMe0PLwWUIMcyDDFZbmgm+EcxFlmOfi9996bHLIA3Oe6Et407QgCS0AZTm6p/krGi/Qpdcoy9OtnB5ALK+4dwRdaFyCXsl3secVAWRphsCCFsBLCw3tdqUQSiPsMl08u/DOYlpU/2yxvjGM409cZznLt2LEjQSTHkLOVstpQi41OisZTtOtsBI/vf//7abbRr5RfE5IDB9MX5ILymWeeyUGAddJ+qpgzvBxFDqZI1smJBaZ5+dz8PVsm8/PeMsrBBYtlNk0/S+1znWEN51mnvyqCotu0BMpDDz2UoPN5ob3PymHalr+Y1kzPjqPaYl6GM555CEKB7rWH8X7mZ34mObv10G/R9kycS3UrplNaOIljRTy81+U9LNDebUUH/X1uhUqccq3/ua6EKUQdfO4znWfTkMCWxWuJ78BGk4fELKNEw9vgg86y7QDAcjIHRt4r1jSJCMRSBtM1TQc3e/bsSQBp0hF46pyW0VkeKBGHsZmqg5mW+Zm2qkSpawGdZdNZbtMQBF7rfCb4TaPQUD/T8N76qtdaV+MYVo6nLbQ4y26a5pdpSCviqnMbT+egR45vGXWmr6g3rsA0nNcOinZAp1Jm8yvO55fqVgyUpTBWuDj9vLdxdCVMeX7uucR9q3DZoD8U2Qze6FnSk2iFgIa4UPo2umE15hvXBpZr2bjFjpf1oV4OmjQPaX4xnuD02nClkef4ytgLmJe05+nnM22Db+YGy1bK/1bhTVsup53QMmtR+LM/+7OMlmWhLmX1lWlq1tFfoI1Q3zIpIY2K/lryLKY570snENiD9Cxh3+55xUBpZUuDXUzhCsFLRS8mzpuFkRML/nMbVeJ7iNfBZ+dLq9RB8Wq5jGcjzwLMQWc6clwHLI7QDSO3+sIXvhDve9/7EqQlvIOgkq96mGL/gu5sf75gkMEHmS5xBNdRZm10+gkaJxvULwWPh53LTqErHD1v+PG5Hcuz4Da+9R900qb4qYsadrncioHyUgtYGspzuTaNBOs5HO9S0y7hCxElOJkscm0BfCFnWQz/hnL1y+hgo6yAseEU4U5NFnudNkvB4EDINOSwck+dja2Nc7CuFyrDpfhbF2km0Kyv13JC7Z5yfDuM3F8OqFrgvYfls9MVXdFyeW8YRXrhhoWGinHj2PkM5/VyuRUD5Rsa8SJKm+AjnOfB67db2aIilLQsgml5L2ELcd8s/QIYdSs5gXFtgBwpcy2wdSUtG9vFt//tv/23BJtpayT/5Cc/meE02suhTMv5d80vgzptBhr8MfkL95fBkIvXltFym7eHgHPw8i//5b+MLYKSupu/QPVsWAEnuEp9TczrBDBcUCO7rqTttRMfJZ/yzPNyuBUDpRXQDVZUvwRBn9AlzJtVJMO8Bac0zR9quzeJYwNcbN42ntzOPGxEQSTnK41rOoKyNNB73vOeNEJrdNdp9P7oR3lzGWB2vtpw5q+paZA2F6LBYDnfKnzpHIZTpBZQyjUdjGzq68aGE3CG8ZzgRKGRyxpX8V/iWu6Sr2XRX6ef16blMVjOC9XlYv2Xj+eek6MFtbIWvDScQbLwAMZKeRTi6S+BHN0qLrz20KlcSyj9Ta8MNoxjGjayYTPtjHH+H8tjucyjhF8AdF6fLw3Tc5CgeafUw+kzjdqlsczfa9Muzhkh43qox2lGcjTuAMe8BLaLGIznvWl7FJpkOvQy4/tc/wIUw+nnvXXx2rPl95nlkPMJQjm3XM46OOJXZZiDhqbnM+N5nWXtA9L0dPrpTNeO6b3pG0dX8i7++pXyn3v22aW4FQOlFSgVKwUqBCgV834IAhaDq+E1txTOVMLbAAXgEk29x2nAQlT9bGDzfDPnc9OygWyoDE8ZdF4vxu8DwvQ1lutKmTVC27AXctoTNfGov9mg2gtdyiUwnYGxji7Y0KSUetoFyizXsl6WSTBJC53xPUpZ9feQPoVexnN2RjouUAZp4wBsHrqpA2tDNIzhrZfp6Uod9deVNI1f/PQfvC5xS3l8vlT35q24hNQt+GDhB5PSv1RGIsl97I1WzMGAMwk2fCFGqbBEEpA+/w6LJgpBTc8Gzvwq+p5Nv09g87chdJprjG9jlzxKmSyXf4L3ADY6BysCS4A5WBBQLmK4kDMd5613XLcj62OeLk9zyk5OL2jvvvvu5LZZ3oHyXSjNtQBYGmR4AsnpLV+hS3lWQCUtXFspN7aO5usAyxVM2Rmho+UyvDQt4DN9D3cD+Nyj5GnYkv6Fyrlc/isGylLAAr5y77lU3mu5x02YRRzlSVzDywVdpaPokxD6F6JoxP7zP//zJKTE1yUhIa5OQL2ZM311rC9/+cu5KMLGtUN4TkDy3IaUy3yZhRsCyrxVM1wnaVlLQ50vHxtSLnjb7belBDCuo3G5pc8c4MhJS9nPl4Z+WSfqrVuLSUo91vJJC9OzXKoxOjuMh84w5in4XTyi2cmOZx2/wI5I623HtiznOiCZ8V1radqmaTlM73zhz42/XPcrOtCRQOc2oBXUFX8b50YMyDaWS8TUdRSv//k//+ccIDjNJ3BdPe6gQXEqgFwMqy3OKb0C2gKqkva5RDKe+dkB5DZ/8N//ezyNWP3Yxz6W3E396yRcUVFr47m+UAO0ZdqxY0euHnItpw0kdzmfK2WxfO5AVB2xgS2TzzSwu2DY6/PRZzFNVQhuDOcKb+fhNWpbfjuNNlDLIOikjXqq5qiSrmcN+q7++Yu/+IukmZ3cJXjaSp37txzSwnJYJ2d97IzSVdD/2q/9Wk7HmpaHYTwXZ7yVcCsKyvOBw0qlvz2aw3s5h4MDgWKP9rki53//7/+dDSvx5W4uzXIe2VmQX/qlX4q//Mu/fAMoB/Mr1+cSToA5QlZNEOCabMr6QTmKDS6Q5BI2tHlbPhto586di+C6UGOYr4eAcPXQPlYEmZZpC0510kETi+UbbOjFdFXraHPTGqNTvpf1jw64HCwZR9CUKU3BpKi+jmnOVC14rlrkgEzjvSLb1eDaJo3r1OF//a//NTtc0XMFnDRWVbGcqiq2h2s3XXXkhrbiCk1LXfUvfiXMUs5LAqUFkfNl4SwFBPRe8SC4vC4E99qKl22pBKayFSdVNGoiMYyLCI5CjAJeG9RDAnvWvCJnU0Tay83L/I3rYeMPOp+VtASY1xq5TUPQqTMKRA/LZ3h1KtM1DxvVsHIVAV3qXFW3SrvkN/jMzuNg44/+6I+Su9n4in/zdh7csDmcINyFnGUxnM54n/jEJ1J10d/yCSJnl+zcAql0ciqZ9TDeJsT+r7JNxPLLuVUjpKPh7fhKmpKPZ9vCenqtZcIw0lmnn6V1wCQtfSYNpftyuje24CWmXBphEAgWXEBa8eIstKLTZ1VL8CQvqwbRXxOGRHeqTuKpV8oBTNvpMMWhwJVrSQgb5aGHHkrOYz47d+7MPHPXZMn4nLOETDCQn6Lu3/7bf5sDEO2HciHFluJxOxzHcpin6doolrEApCSb9eFG/0yXa/MQ3OplckkbWVrYgHJbF/4aT5p4Frxv5kra1vnnfu7ncpD0p3/6p6nqWF7VC0W4AzDLXspU0pRjOk3qkrQPwk0fQQWy4zvwsZ1sl9KZXbHkEjzrLJe3I6mbFmfapifndjZKiWX+1lnJsFxuSaC0EBbUilmw0iByHf3kShLdysnp3soZzl76O7/zO/HbrM2zYW0UiS1xJJ7X5fzBD34wAVDCCOAKHOdvaMu0GIZyGfZOdFZXwVhWge7ZethgAsqDgJnnYPmzgUhDVzqgaQs+4ysGBbvONNUlHXXLheV95q3/WznDCHLPHo6q//2///dZVusjyF3ca3nN/3xOehUuLzgV9da1HNLW58ZXtXB3qe1lHS2nzry91xleri+Ai5/tslzu/LW4yNQtkIW10jrPEkrF27PP5yCWosfGLRU4b/LWnToXwvaopIOKBBnpGHfw2jSSiBCy+CcBJSJhz+dK/qWBDT8KB8p4RChiyo6k/bRqDgDUT6zE91Ygmr9+g4d+AtMpRU1XOk1ecnmBU0RjyTMDXODHMB4lfYMV+kjPwhl9XtI9X1KmYduUehumANFr4xenCiBzsGORedZdndK2Ka6kVcoyGL+EWcr5rbvqm6ReCuO5rISWUNoABaU9XL1H3cowJfz5krT6pRE86wxfCFme6a9fSUv/Qq/Mg2cXcsYzvIAybBLe9CB6ycu4Noyb9SW+h+E9Sl6lLD7TmY5pW18PVQG5pBJD52BBVUAglbiG13l/IVfq6LmUJXdaEifL0qep16Us50urhPWZ+XqYZjlKGcq94bzmJ2lTCGweJa0MywP/ir/xlsMtiVNaQA8LZa8RgC4utK0pMQAAKm5JREFUdWechbax1M1SuefacAUI5xbe8KVyWWHuC7HODVsIU8ClnqMr8d8sj1Iuz8W5HXYQGjaaaZiezrot1pV7rwsnLelYFke3jmz/+I//OE0rxnW26qMMztS9ChCNs1g30rLxz+dKWcsz41giy+ozD9N8M7oa1zDGNXxxdh79FNd2Qq8L3bxedETxvhz6l3Sc/i00KnEX4y3hYsmgLBzREbM2P/dTS4QxGnQVYuCTKOd+UJK+6YlPk1gplHw/kce3B2hervwMM43fJ571KRX3ujj9JE55dnYkX0L042WrVX6WRYIVQhewlXTyTNDScGdTKmlVoFl8bgMJCNIl0UzXhnmdUewTmJg0UwlOy6gYdOSuPlmArX8pv3kNFHUw6/NeG89yeC71KfXQ/0Lu3DwNt1iffpr6lXJVaTFHbqvkV7p8ZiTn1y2zot0DrxqgzqzPAt60luKWBEorob1MzngI+9lRbH8aaG2Arasn4v0feH/cd/ttMeznLhRtfJDEnk41+KItoOTo1VclKK2XhSmEsVIXuvbZ+dxgeJ+XhvNazuDzQT/9B+N4fe49HgZLl88MUzw4yyHdoKVB2pcWqE/qHC37pgktCoWLDAKn5FPOGekifkr4cr6IKG+oUwl/vrL4zHRtv+ixYawL8EBczY/u8CFXFrMRwq+/OSI3TP5nm/oR20G6EOBtuyWB0lydZSjzuqXXKsYf+u3fwGzwYbgFo7I2+iWfQZ7u5zbKt78bbWxfPTz4rO8QiKT6y+4GASixBWZx3svh1IUTNNxfkpPF4WxcVRYHNWXELof8KCJbQGoqSbosW5NV+a74L18ghg36IeJEXkN22INzylWocweQ2mExNcNg+oC8RBJeqA5LAqVcQgOzo0sbXO5QtqVuvAUbVofe1oYjNif4sCQrdCiFfayRH9JRYLPHmsqOUplllgBZXwGjeuFZU4oDDe8dZVte/VMMXyogSb3oU5pVnCESlOqNTpdqctH0oj5pfoL+3LeBZAEv5x+/8uaoG6cE97LOh1/lnGq2baSfXyDDzB7NeQII3mUC5ZK+oyOncUbABQICUoBqgLURZlosiO3ymbTgfTj1dTHl96Bxq+lVdeLZ/XpZaXpbJdP7yMxgS/qxXHJCD53TbE7PCULB6BSaHKw8L+dLydR0Sj7W3xU4AtK5+vLKFulgGF12gLcB/ksp03KGZT6OtkOHpb1QfBJvamF+0brDRzVn6izY4Ha0NxzD0yDShVNLYnFnS78kUJpMGQEPXidH6rAsrCFvZNVNjFNFxDSVGrEmNfzlnOzzkP039VN+Vx2Ti6W5ApYkJbhUfHqUOVyvC2ByRmUAwBebs3lkmn1u7OBGsa1JTP9SBvUzaSQoPd4t7gQFZQIxhh2dyiFpJ5HZ5ujQru2YpLl4I1x3hJds8aKsER5cLqCUYxSuNEj8HqCs80VQ50/nAd3IEIsb1CFpmB5I7KGvYC0kruJcJbq6Xs5GK+A4l0tZZp3PdW8HMKWupe6ZED/6l5G2ors8TxH+LuKUx6kLr75KYNYWRCJmMRjHNN9nrNdmYrjNOzMXaMH6Gj6FvZZPaKoKFSos7bxkTnmh7GfazF4woInTkzF/aA99ig+DsoGpN7EFgY5OB1AdizcRBcyUy0dhlisx3LlQCa/4vxkFTtNfa7U2LdWOxkLFLbuoI5O046oOq41e2RPdo6eiddOdcWLD1YRjbCArXQa3TNj+4ZJ06mxKgp/X63yZdpw3Lzz/cLRfeYKvo56mmhFzME0tDixSA5xTVEnfK+5yoYDfYR9lhKP+323w1uEhXjPTPBOr505GnU1xM4/9gA/ish6BD9SfphXVO5fLrRgo1UHm6GBd2HpjjAPgnfzG5yOOvRyjMyejRR16fKi+10Pc8elfLIjLVacr6SwDBdJMhwJZazPxwAinx/fbo3Ys6qdYz8ka1LEpmMm11/Hdbza/LXPbrRgoWwKS1OfHMP2s2Rij198W7TOn49D//MOo7/9GTEy9BBid1WHk1kVRVt+84i4bCmi1U/9HYWQEzjB17lh0X3k25r7wtzH5CsveruUViRMjfLe9zjDWj9Yvn1sxUNaabId1lMYIey42RuuaO2MYW2Hz+Pdj/uE/iu4Tn4uho6/SE3lnd47Or+iTy9esS0+pxve857EHzQ9hITnDLNVzzFb945fi1IHnor2OV3zvYP3k0GiMYOqbgJsy/lk2t2LsiZfeRaPGfha44FwTU8n4tlizc1dMPvM/o/XKoTh9choFelOMPrArpkexaVIlzelX3GVCAXTJeWzNcwx2eEd1xNe+E6MHXozmOiYjrt8Q9e3r00w0wpRP2w/SD8Nal8nktWKj72kGLiPs66ijl/SYSuzAk+sLszH5J/9XNPY9Aoc8jJnoWDSuvi7iI78bB675JKJ+c2xGx5xY4O2xXWyZDJZQt7WWYRtDjDCf5UKOepzCX1vg1VznZRIIBZWzB36D9glFkYfM2PO73bWrt+umPU0zU6nf4oUeZ4WgCyhcEqPVWIbmU0nBt8uwYcEFFxjVtOBPKbPxE1wn9kVv7kj0vv/3APLTtGYvjrQ2xvS662Pnp34/jm69L6YJt6G3EGtn95DY1SRavTCLpJfkVoxTmnB+E7DZt0VSV4mx9r0/HUcOPxPjUwfTCjZ9dDa6D38l1j/AS6B23sHGp7FoN8YA8SiEY/SOWUnLUp1BEbPVudKoE6vAHMZop4IkZL9hhKzHWVf5VF5c92eQzj5/l14hgaxT1tVzXld10d6r87eWIHNSEMrhIRCxNhKBiQQDoSv22tAVRpBziQ2Zh4ubofne52P2xW9HZx+DmtYqAvOaQKZp19//McYIV7PIhldg48teSBLmeW35oLR8KVnJAcduEQhB1QFMTtg7MyAH23J9TNxxX8R398bMAm/SnYcA8y/Emqk/jtbeW6Nx70OxsOm2mB/eTHiBRyeswXHRPCW4M0NtrLh4ITHo+wlI1hQSooJtlY2/laHCkb3NIr/QklY12kBR33WXnXpCK8k5CEgrItisYZ6lN3cCEuonZ6zB2ao7IcrTpgNNrp1QaM+xdmY29r20P0a/95UYOvZCTMxjZ27CKLrzMbb5uhi7/SMxN7Yp1zAMM1podBmVN9aS0IVf0JAZXcLPioGyRkUV2VofqRIYgUKsvetMbIiRXXfG/CuPRffAkWghppsL0zF38NnoHDsYtX0HYtVHPxWtHbfH5KqrENYsooDE48yxClK5Jujrpwe1+9ygLkpxNgj9n6P69YpAeVTNwOW73LlAIvF2Tj2su8fiqp2q2qxTlfbeSAudDAIKQVN2+URN+9wCnf7os3Hka38ZI4d2Y5I8Ec3OdPb5eocNZqu3RPM9vwyX3IGUagJKGEWHpYeQfaExDgdm9X2V+JJ/VwyUlkxaNFCUey7qhd3Lu+Y77IvZdmO0b/xgdF//UoxOv57r9eoNZnmYj+wdfjFO/t3/iOHbebXJ3e+NhY3X0wm3QsaJbAikeGV+kPrS2HP+VGqCt3JFJr18wLnfMnn34/HT7Fqnfn+sqpn3Vd37JKmC9P0Ld4QaLsoFQjppNDQ3zdLJw3HyCT7j8tzXYvXJl2Jk/gT6O9xYJkKn7zAmaF5zd7S2PkjibDADiZqJooYAJ9Pllj4rBkrxIiAUrIKkDSgVsS3nvUc2xPDNPx21/fti5MCpmJ9heVfNNzXwNrE6o/bJ47HwrRdj+LXnonf9e6K568HoXcN7t9GlXNdXy14P1WWbiu9kn0lnaUQuSSuuEfOJXEtDeMP+GLhqyFJVKSucP6Vu/fMb6ipCK5RWao5wRIZMvhYzT38lWnu+Hs29341t3TPJ7+pNpNI870+qM2MzzLvdt+yK4Ts+Ft011+Y6hTqiPNA9u+j9Cqqm6x9MfnBwuQQ6rxwoKWyKERSaHiNnNI+ExwQFd5q/tnFXjH/gYzH92VfQKeGgrkJHPxmhBzYgaJdazuzbHQuI+Plnno2Je3ZH/VZ00VUboK9LBVpxurU+FwhruG36QXoPc0mRTtXo6T3spAvJHVxgUIF1CfS6PKLWXf1dnJqztLUDwtm4ViIJuzoKuS+2aKgvYuJpAyRp1JpnMcULD8fUU38fnRceiXHWvY5C9x66eq/OKwKRZnVm2QL9cxImu/HuX47G9nt4JvKgr4BkYMNyE3R+dHXXtL2hE5Syvb3zioHS4uToz4pSkUq3Y2GoKjLKXU3EXrUrRm7nzWCPfStqcy9QL3SYXOrMrj9FDMQZRtGuzT0Xrx14PnqPfzHW3nF/jN4C1xxZH531axn+2AT2f/Zbq7vKFCGa8JNP8/4MQFnptvr+OOiV1riqnyutrHIlj1KPdlRDp3Tlk/WthAgCdvo04Dwcsy88HofhjsOvPREbWOkzPssiNRhFr+XyQjq7i3jR/1vsFFgYXh/rbvlotG78QPTG1pOrM3CAlgXALmHTJU7zqu+R10v7WTFQCkUJR7Hziu3yVJp94XDJIXpWo8ebv9ZeF437fi5ak1PR2b03SStHRYYDSd4bBHE6bFaK3hnmhIjNaqMZRM7Uy49FD/tm96ZpZjA3sLCdjfOub9Su2VQFF5AVB7HRLECKl+XSxE3zHXSuspK65ZDKCQk4m9RuyL16DFzU0enYsydejjN7GFju/WaMvf5MbD1ziGe8mBYqzyJtNOe4OiFNRADaZXZzo+tiFlvk6gd+lVfjrSEHKJkZQVfO9n3BU3Vyr7IEnJfuVgyUigmL7fy3AKm29rtMDQfR3NZ6pj4WowCzdduDAO670T7eg7Ohg2LbZKe1myVimJ7fRbFfYITThZM6Ehx5dSrar74Qk3ueilPrt8X4tXfE2uvvjTY6zwI2tTaDJrl0k3xGexiH2ZLRQw+qDzE1toz2tKWT/+2lwJLhCh9Et/MrSBsAsgdt6hjDa048UN95dPYD+9DbX3ssRo49xwoZVmN1Zhls0ibst3HGuof+qCrUAbwN2qRJOg06+Im1t8TqOz4R3Q03kQfySGtKiwVqcNWKLwtj25i0UI+WUXon2DPhZf9BJ+nm6nIrgThxhag6Y4MXMUGEWQY2Wh/bVHT0Bj4Dd/zjceLhz2MPO8XID9siRHX6aohe2wRgkBvTgwKZ9z9OI7AwYayZPhxzR/bH7IGX4gff/lasvul9sfn298fItuuZEILIw/Y5eK86WBdwBlzhx8DJ8NV+Uh3pdzoHJszbRu/IAUbSj8ThPcxRnz4Z40wVrprbG6ug62wXkcyU7xw019AroAVZLxkIbQSt24ISple/6xdj7Jb35Ya/qPOliQY2ZcS2erlSL+UQuoGAVBrJMZdLEK3YNCN7TVnWNBRz6jYQcCiVbd4Y0TwNTFbFqfrqmJCwEGQWET16iC9kPfqlOLmbTwBPvYr+w3L7+mwMwTUlHPOMcAEmxpj8b2MAlRPymit0U/otROyg1M9jCJ5tjsbEdTdF+6qd0bv2zqht3sWgne/gDK+KMYzAuf0BAr6bHQyN+rNgbPZ0zE/yipwTB6N74kBMvvhU1DiPnDkaw3OnYmhhhgEgXA6UtaFhBymhPhgArK3sZ5dpS0kmh4XV9dDFe8zqTOy8Pl7/lT+I9WMs8EVX7w5tiDNwVnVz3782gm5ZszMAz15tjBDV7E4lypdO2RUT3ywpz4qi5XH2h9o7PYbjK9MACpVZf4jh/ezqXdF6cB2G3rGYZL51eOZ0DEMgDUotemSdpeq1+ZlY6PJW2qFVgN3VReieTJEpdlpw4VH0pDFWRXf2Afy9T0TnyS9FbfVVLCK4OmrqRbf/DMbfq6CsS+XI3AZyRoOjm6N0NadKOPWVDzqOss5SZ2Grsw2YXpW+7KX3Hrm5irOhi8vQqdSWUP0z5Z4DKHNwG7mMB7DJo26+Ls930iFnWxDJykiO2kv/EHHqBHbeV2OelVbzJ4/H/JkptsnwnE5egxYY4eCK7LUHlA3pB43b1LmdIx/bQqmDGtVhVkbjb2MYuq6O3o4PxMyDn4zx1Uzl1pAyPfkxL77it7riIq84UW5+8s6yL5dbQVCeJXQWNpEpRDHE8rv4DjbAKkCnxjdFnemrsfsW4vTUoZjdfSaGeqwkSg7r7AGDHmjeQW7VaPlmgwZVI4CDuiGNrxWiItCI6EOCd0y9avZoNE/siXiFgHCHF3hldYOZifVbr45Vm9h1ufkaXuC4FZDy+WLSbxGm0RpGJyUtiF0XuGaq07SFX8/ORW6eyQoI0W4EKXCzhjpDGTOxbzzvE5gGNhZHAgNxSfdqoDc7eagpptah7Oh+GW6eFd9sKekeORSTRw7HmdOnYuTg/4rGDBvzGFGPMC04LtjgX2306XnKvoAY7mDkbgFsl+A2WHDRFNv4LwBKF1c0eFZnMNRwRg1Dufr97MZbY8O9vxA1BjiszcYhrEnHS7dBn3W0YF8313u5QbRy4vtsDS7qijEi7USPnQdUB/l+4Vf/Iob3fY39IEcgwEJM1cZR50eSa65WmYeDKKrlTBLckbob0twkP88sUhfQCgLtaC2eqZee6fGGNTgizDZmEF1qRnW+lb12y/YY2wBAV22JWLct6hObK5HPcv/20HqACteXo9rYyWkAGa2h2pDw4kYzimUatgUTuJy51+UzIcqtr6yBPRERaFjueTbYsRK/xwa73vQkhoZTiOVT0T1zkhHzszF7ik+4nDoGCZACrG0cGkJFiePsAEU/pwZjAJwqwgGRIAzwFpAgTlTYQQ3ZRMy25nnjHYJ3jh4zA+ekpwM3YMwmtwaWjsD0s3D9+2Phwd+McV6uSgHgGpzfIXfZgDI6fEuQHj1fW4UopoEPPR/Hvvrp6Lz0TYh3ojL8Iv5d0T6KrqSS7oyCrxRRAZCLteHGcs9ZQenqJMDXBAQNVsLU3WUIBxIzNCOA4ooAKup1bXJwxC46VYNBQJOdl0PDI7GAWeTUmu0xxD6U2jCrlthCW4eTNp12g6sKvhpcpo6akYgjH4EHcsiEgtrJBCAAcWdjB67UoTN0Z6ejMzONH5vrzkzG6Olj0eZjom38F+CAPq8LuiajWvS9BmJcFUV+q8A5it7jKLnFs6bcDrGtYbyN4ZtaGgqKuM2Ed2xqeluYoM5sAWucwXeKss+iOkGXBULVNkT32g/HyAf/acT1d0M3pA1iu9FiQcw75Jab8779arSFC+0MqNrslW5ec0Os+/Cvx2FAc3rvo7F6FkMvq9ndT83AGgIzKlfnMQLNoKCSQ1QKvaADqjSg4HCGogboehp9YU89B0qEr/dFkxq85qMaG+wdxfam0MkAdh3QjrIq3q+LAS24MI1N2bpyTZbYaXSWe9ZdtcPZt5fNTvO6ruEKlNWolnQBVGcBYxedIl9igErilGoP60KbQs6yIEIGWqMzDlM3mHyCr+VqKPJNVihbxV83zIxWDV1PrpvTEpTdt1V0TQQftyxr1nE1eFouqPc8R5PyjpBvg7I4dz3TWBex/e4Yeeh3orbtNuICYMO2Js6qV2b4I3aXDSjbiFbfq+RoTwC0W9jRrrsv1sM5p1t8PeuFL0V96hUai1c1u5SqxUfZa6doHEAB8ZP7yQdpHNdNthCpTbaGNtvMU4BiGcDUxOoqbfhFxXWIJWcDJKSCXulIH47YK8ZpwmG4b8meENs9ZzsAVm+WVTOzvCHCuH3RLTi89mMBC1NcE0WQkTgHDqCoTrQAg5lqp022bbos32sbVqAqJXjmFKG2WftcHQXPDXb5bkr5IOLYPfUONDr429FAGZmQJnVzDWqTNHKLAmJd4Ld57itWRu38cMgYYQZn+3uj/rH/Awawi3gMiph46KKTVi+0wusdcpcNKGcBIewkRpMDYgWDmG7TbW26PtY8+DMx2T4V0/t4I8PccdZXKpZ5dUjaMwGcHMu25k++qTD1vgmHHEaktlyu73MO9TuamADO+2CQpxFb2PJqtH4aiB1QaVM1NTkV/oLcaTvgAu44jM7ha030S5CRauqYWgl4bHz9LRNRSAfA6ycYszDkQUIduHYnOTXh4LhWxUGtnLSL+O+QRsdleSaK+cvyu0pIkxj8ME04dlQB7vuNVGQq+4FllXsb0Y6hzg6wkQ4Lo6wQ3/lATLzv1znfZVWgAnkKSMK/cVDDgx+xu2x0Shf4SxxeKE0vh+iOelOmQdAuI9Cj+2Pyya9EdzcroQ+/EA3E7PFRuAFcQdORb9+gHWkE7XGmBEBp/xZirAXQxIHAF1Te9LKh8cw8HCThnS1vObjBwwbyBVzFFThXYc+GL8/zLFctjmyrO8vTZ2Z5ZQ59P9JvyoENiJfnPLjx7MIUwS2UixvC4qBkkPt1OTrUQWCqHthRmnQkvtAIBhHpHPkyKqwWjrLrE+ujzqqr5t2/Ho1tN2EVIy30Y7Vti+DMm5y6MveUHH+058uGU8qb7M/yGcmTK09Q5rPt2B4Rm26NVQ9i8hibiOlvTUbrtPNCgJI4iml1qC5cSg7TYC9yF3A4o+TAR8N6AzYmB1EMpyhGX6QpaXgaHzHZYzZEBb/b4HAGyIZmcUhvDrvmm7oqjewHlDvFeNaAxhVgWYG8SE6aSYG2Raizn7rLjEmyOstDGsCHsFzDqZMb5tkYwoY0LWeWvZqH1t8OJCA1qndQWaSjA8Eu+m0TW6TrDXobNsXsTR+L1r2/FEMbr6F8mHwsC8BV+lgodeku1o5qK19m9yP/uWxAOQRDkBtU3AEyQ6RaAsgGpZh41Ca2xvDdH+YF/bU49MTDMXzsVaa1mbZk5fpwfxRqo9iUC4R38NNFhLVTHqJnwn2zWQtHIpz5pc0RiPswhV8ajGlEwCBMdCkuK+RlGvpmWuTS985wFb+he/UDlGdV2Axi2y+mp0BgkqoKb3n8UxxTCz3hgxyixVg6wMYoXuAqnkWSnU2VsqU1AC7nPjAsa6iOPBkex2aLhBgZi1UP/DLThz8Xk6NbURM62DfpAkoCwkvvzM9OzJUpv1PushHfSQmo4Jo9l0XZLDZAckKlCSaVNCjLWdjNd4atE/G9z8WpvS8wu3E0xtuuCWRaDS7XheCah9pwQ3WoniBLgJEGzZki2y4AN5RT2rC+5toRbS5U8OWgXLuSabiHqQpXgUqQnL2u/PLx4o/bXRLp/ZCGEdDaMEtMu4bZ2iG0Fsxh+qlcVaYsX4pQ7rOcwkRnGujMbbm8coKD+KopmoiGVUkQ4W100ynMZ6cbrNYf3xAbr94R47vuic6d7hh1xQ/cFJD7/qZhk87kSRsR3+WQ/r7Z6Z1ylw2n1EAuzRVsLt5wcJlNQON0IbgvNlC/ajdXxQJz2b2RjbGqOR2tzdviIOsx66cOYurQFOI0Gzwy7ZdyEfhmghJuQXgbvHCvzC85kIIPaGpX1KSu2pBApfHQw9JVhamu+a2M4Iu3XMDPQFmlz8rVjNDnzJ7JIO8yHeObozojWBB7uEqoZ0mqMlLQCsyefV65dostDJQ7lZe+vxYIZUM1kKL0GNkbIxOx/rY7onHXJ6O98RbUGkCIJHEtwZzSh+tM1MjpkAzQni58NrPqwY/09/ICpZTnjQv2UcWRG8+09bV5vYvipsMyqwWMxFjZaMmhWL3pmhgZG43rr9kc01/9XMzsf4bRNgDDaJx0puFSuNkATON0moLNBmBEDUur4ycQfLMwDIKGUBPzBfTeLKACmBfz5IkIy4Z3/qjpUYaCEr1xPk4O/wb/s1CrvAVs31E+gVS302XnMCvC57WiWI5ahRfwGZ9M2i3eemaZzJF/L6VZl1fz1SGcUUYnVsXahz7OR3y2xdGNW6MzspY99e6nx4TUcZSNmmPPZ3bHelfqAREFtxm9c4ySsmljuAycxfDI9zkmLAbu+1xlsJgWGtM5YosDQndPvBKTz7Nk6wcPxwKbz1bVmBNmVmQcgI7mhvsZ5teZToPaadOkkWUUGteHSN9Rp7MmCYE+RVIrdZtGwoEncBhDqKcq/jp9nU5DfQ48CNfKQYtAqSDonLZToKZbcURavc+YjNUFFG1MW77V2PTkfl4bQ6O/qKubhjmQiDiaZNrTc27eom5u5BK8C0wztrYwor7ufTF2189HbL45TsL2NJExVHzXuMsGlFJMUDpjU9y5Lzst/p5tLqWtc7zVahbscMwhq1++9tg3Il59LoaO76/smgyCtOFNYRwmE/QobJMAWeN2ciNABa8EHCxYoLW1LbcV8/xprqlyq05l4FPEJL6k4S8OoDjKL9fF2/uKs+VVPs4fdVry7cHJa+iDaTSnnIK14ovoxaSnrdEpUFcyycaGZ4EuzL9BnK6cjynQ2bGNMXTTe2LsZjbZXX1LLIzxfXBA2iYMpnYM55ePUDxLgPNfXVagFGmCpzhBeUFni2erKzDn0+wj99IuGWwZ7R7eE71nvhEndn8H085MzDPPPLRwlOVdzALLeUQ0Z5q2OhgczKE/zjDomHflO1lriladMKNcVSO3ohPkNWBocO2am4oTki/J1Xq+TYJLsOmAIc+mhVhVJ87BLv5i1/smonRoHpUFbgevzAGLeQh+pYZcUxviPMN0B0Ua2DcwG6pBvwcYj1NQ9ywNP/iJqG+7lX31m1mMy1p00nbfku+cH2GytPku4pWXDSidE5ZTFu5YuKYN456RH3bO+1bvALY5HXgO2RAOmDS2YyaKBRYVv/xCnHzusejwcqZ1x76ATY75cxYu+EGpeeyfPfYuq9k5S6J4zeVqcC5NLoJgQf1AzkXZENo87wMHs0wB0uIsDWEWGIjpBGPf2pJnQa6OLBg1A1WgZLJgAbgwbSiEPJzDNi5VwQFO1ka632ZI2yEdQZ2w29wY86u2xdyWO2Pde34pemwF6aJv9zCE20HcO6qlEmtrpsfwBm55hVNK0UtygtBD57mMTlPHpKHOdYQOFun3G1PjuLoTvE2lndUztF4ebpBiBSx7el6Oxr7PRu/Q/jhx/FjMsUoHMx46vvwQ4wpZCzhXIWmId1GDT+YxKZl7dShWdXJZrr3JMlvuquwa7KvQAtNSVsMmgVaFqEBHoLx3a/AQaaVOSifQjFUBllIZX0sA0qPJSGyYSYGhidF4fceHYv3O26Ox406Mk5tyed0c4l1Qo+wCQcKrBjC9ai3y1SzFimDGl7m7rDily7v8Yld5mb3fu/FrC+cT40LOqUlxIag8bGZH7TZPrtYGZA5OnEN3UDQ8xds4TrCv5yRG95eejDP7nmFD/hEWa8zwkgR0Og5tky4KaXF28FBra9cTWOYkoNT4FLSV5qd3gsFnHA1XGpG9oROeXFfctzqrK1Zc0IgGJB82xC2mjcrSZtSvlWEWgM4wH90dWc0yz+tifMcuFiZvjUPXfCAmUCpH0X/dueg++C7rTZm3Sf1TS4L2x5oDpTZp+0Y1Pp38bnErDsrCAQuwBJziWP/yfe3nnnsuDhw4kN809MPzgtPPnvixJI8dO3bkl2ALWHMwBDjmOGx4d/MhOLnSAOR2UXzVGYUGOphNDlRiLau5cwQM2OR0cfJoTL3yTJx84dFoH3ou1taOs0fqSBrnXQ2kvdP3fueCDFfqkIaA9HCFel7LUWGDAtK5l7nglScCzz8ieFieBiPrNCNxX50pAwMuR84NrQP4dkxzaIKBy5o4NIt+vHlHrL2B19fc+h72vF0LsHy7GV2G6cOzJak6peqFfuZWbWGgvFRfvRYfUn/3uBUDZRHFil9BVEBZwCj49uzZEwcPHkxw+jk61y2WeJLQzUzGc53i6tWrY9euXXEdK6PloC7t6vnyAkDo4ZIv49YZoTrLocVRWFaOBlME0jxZHsI50tVW11T/5NXJcfzV6LJt98yhfbFwDI7KSu/2FO/4ntpPEqRLmmnXM57wdJtGAkGeafoeBAWFgpKMEsx+miV9qIfA9XCZWqe/ILjB6vnm8DpWuo8zwJrApMPsyzU3Ro3X7cWWndEbXc8omi/a8Nbc1BHJwg13OiGoq1JWzBuCh5S1i9oxR42VEA7Vqt1RXLwL3IqBsph2EozZWLYbr2JhrtrPD+/duzeOHj36Q4AtOqRhPbzXORBSlAvKG2+8MdatnYCbHueJu33gIBjC3XgP6+G1yL4Zw2FCZaMbRS9rwCVP83YwuZ6rkJpOSWYouCz3Bs55YNZK8tXT6JzhTXBTr0Xn5DMs+j2JmOfdOjPsN59j+4KvzPONE863w03dcz2k4RA3PKOYhDdRhnlAn4t/1ecUoXD/uh2KRRIdrnuseO+tuy7qm+/gTcerWDfMots1m6IzvBq6wNsQuR3K68CoOC/ZZFi54o9FISHqmU5ht6nG8nJ1aVB13X6sy/60YqC0oQVmI21rFSD90NPzu3fHyy+/nJ+mG+Sggtc4uTK7z1nLB5EMVzipH07ayLcgH3jg/ti4hlaxwbXhwRlmmbN2kGBbucBDs482TGc55LbzfKRUTmqRHFo4KMjBDunXGNXmy0OTv/LM8rCKt+Z3B1mpzapegmPkZh9NzDKjcvwI+qZc9gwMigW/bNHooZp05tiiQXkaTPPVhrFc///tnV1P1EAUhutilCARSABZLrgE1Mhe4S8l/iC91l/AhfEGV6KCCYkaNb7POz1rt5r4NaNUZ6Dbnen0dPbM09M5nZmWcaJaFvSImdGi3s4l0Eb0desE05yL5q0s4VsmzanUtAVjbChe9jXNf+V8YeAFVh/ACIxOJ6RLtrZw4gpeksnD72dJvQPsyX3Q4VzAi0IZlg5rhwMznU6bRw8fekoB8Flv0rotlWNff4SlBEy+k/e6KhYw70/uNctrmgpKbTLlVn3cSFV124vmAU30qeMRazaLRqCrXxsvVQstUFegas/9xpK7oPnngPdOXutHXaYX5HAsaiS6+PSNdu/AEBzdprFHBQbcpsHj57aV9kmPxwMSLToJgQVCcMU+kEZ7mrz2hvV0HiXRZ6RTyyPDWdOz5FmGNAbRD5ZXZUlOltIkkE0s7a+AXP5TULFoyxIYsc7VwT8iJV36z2JQJoUkzQDSS70L/Mnjx81zgRlWkfQFLBLKwxpqHRCmykhxNwG07ZNA5jmXhlMVvHP7bjO5c7dZllXikswELUPiGlPly8mhxUfgKCONKzQsqjEqkMscbU9uVWNN1COeAJUYvHgsLHTPThqOgbyoccVIARun6/PTFd0bVcDhSgHZlEHladfE+XNQv/5IU4nZzo1xAHQPDnwrDlDkpPysfTx55d5bkVZKu0U7uSjpmFw19FMkOS1aDSKE5rIXFksIPACFl413/eL01MfB6kXwpTkiWs8AaNOIR35XSGsxcYqmz54257c2mxtamDrrquPybNNGddkPtyRXraypg6BiK3ukNZ/pO8ZMRilx52QS0vZEQPoOiAFWu9UyUi9zBzrnihxpHfulg+oyT2+LLSpbWgjtyCU53osTAQgVCWntAdsVG4CxE9XXpJVIHMa6GJTdn89L6U8FZB848gDa90J/P+J45h8k9+X0eTPeWJf2kyWi38WNRgml8uYq8BvtKqqxU5VfdvCOScKcjLawAVZ/W3qASZvpR1ayejGxP7IbvL5gfkk/rR/v5WEzUA4tzNVH7sJjKbGYtCdfv9b9OyxYxgCcJycnfmssYvvwZjxUFfUHNZCXkk7BARBIgJKXwPM+7LgMd7L91ldkA/vFxYWP47amjlnDsDVQDMpQC7dwzs7O3EOT25Ihj14ewIw2bG7w43fU9Z/TQDEoAw4s5vm5HhqgSzlLzoBsFqwwAUj/hUf95dTREGUVgxJlACFw0pcdcX/J9AGE0Y8eJ4Hd00zyq5i/o4FiUGLBoo13Qw+GKhHC8jJow70/OgjHrWHYGiheg+/Vq7G5qf5ctf1ytikBEgCxkOPx2P3i1UoOG8YofVEogZBBFOvr63qAgN7aIG85V0A2Ts7amqbb6ntYzbyt1lylrXJ+RgNFoYx23tLSUrOyspLVUvIjgXF7e9tt1hmYmZ2pn1FmzZtHA0WhDFCAcmdnp8nZtsQybmxsWO4io28qjHmIuARSikEJkCwERpHTruRS+0Oh3W8uby+NWz/IA0icnBr+HQ0UhRJHBDBpS3L53tvb87Az1BdWNByWaAsa5nb7TM0AKQidR98ZWXRra6vZ39/3KPSQ113P9q1fBqeBYlBiyXxJFUSscXi2BNJkMmlWV1etqHB8nE95RKrBA74AkHYpI4IiD4N1x2pHHh4eNjd1KwjwkcNC3mjHDq4maoFnGigGJUcApKuC0UApzmWc6QwHBweeEEY6C2CxMFZSCXNr0gkxaWx3d9dgL+t9jMg2tK1XH1bZO9SPwWqg2CBfAAGYgKobx6rRX318fOx5Om80J4a85AHSWGM5gRSYcZYAGoeJpgByA0jalN04VrmG4WqgGJQA04US2LppgPdOQ9peCU7GWtI/zhA3brYDLaAx7YHeGrxsZjMCIwM8ABB5BPIGhMgnxIngSP0YnAaKQcnoXb8BAZUIIP4+ei520lEAdFXwvVffOHABKv3kTHvg5ZXABoSs2UaeAI4425ADwMTjEh/ADq42aoGtgXJQVgVXDfyiBoo6Or9Yprrbf66BEW24GqoGLpMGRkdHD+xcXKZC1bL83xr4DMgLLL4j9IBzAAAAAElFTkSuQmCC;" parent="1" vertex="1">
                    <mxGeometry x="404" y="321" width="66" height="66.8" as="geometry"/>
                </mxCell>
                <mxCell id="42" style="edgeStyle=none;html=1;startArrow=none;startFill=0;endArrow=none;endFill=0;exitX=1;exitY=0.5;exitDx=0;exitDy=0;exitPerimeter=0;entryX=0.5;entryY=1;entryDx=0;entryDy=0;" parent="1" source="13" edge="1">
                    <mxGeometry relative="1" as="geometry">
                        <mxPoint x="442" y="368" as="targetPoint"/>
                        <mxPoint x="442" y="582" as="sourcePoint"/>
                    </mxGeometry>
                </mxCell>
                <mxCell id="43" value="http://xxxxx:8888" style="text;html=1;align=center;verticalAlign=middle;resizable=0;points=[];autosize=1;strokeColor=none;fillColor=none;" parent="1" vertex="1">
                    <mxGeometry x="402" y="559" width="108" height="26" as="geometry"/>
                </mxCell>
                <mxCell id="44" value="UPSA-DATA-BUCKET" style="sketch=0;outlineConnect=0;fontColor=#232F3E;gradientColor=none;fillColor=#7AA116;strokeColor=none;dashed=0;verticalLabelPosition=bottom;verticalAlign=top;align=center;html=1;fontSize=12;fontStyle=0;aspect=fixed;pointerEvents=1;shape=mxgraph.aws4.bucket_with_objects;" parent="1" vertex="1">
                    <mxGeometry x="22" y="285.5" width="75" height="78" as="geometry"/>
                </mxCell>
                <mxCell id="45" value="" style="sketch=0;html=1;aspect=fixed;strokeColor=none;shadow=0;fillColor=#3B8DF1;verticalAlign=top;labelPosition=center;verticalLabelPosition=bottom;shape=mxgraph.gcp2.files" vertex="1" parent="1">
                    <mxGeometry x="34.760000000000005" y="254" width="49.48" height="48" as="geometry"/>
                </mxCell>
                <mxCell id="46" value="" style="sketch=0;html=1;aspect=fixed;strokeColor=none;shadow=0;fillColor=#3B8DF1;verticalAlign=top;labelPosition=center;verticalLabelPosition=bottom;shape=mxgraph.gcp2.files" vertex="1" parent="1">
                    <mxGeometry x="752" y="514" width="49.48" height="48" as="geometry"/>
                </mxCell>
            </root>
        </mxGraphModel>
    </diagram>
</mxfile>
